<svg id="0cc58727-d6ed-4a1c-bd67-c174ba37095e" data-name="Layer 1" xmlns="http://www.w3.org/2000/svg" preserveAspectRatio="xMaxYMax meet" viewBox="0 0 400 400"><style type="text/css">.logoclass{fill:#dde8e7}</style><path class="logoclass" d="M80.719,237.1A71.325,71.325,0,0,0,97.49,253.559a125.444,125.444,0,0,0,30.678,15.8,184.837,184.837,0,0,0,29.041,7.9,203.4,203.4,0,0,0,22.961,3.067c4.143.309,8.3.474,12.447.709.3.017.6.083.9.127h12.976c1.9-.107,3.813-.166,5.713-.328,6.043-.518,12.093-.973,18.12-1.642a177.936,177.936,0,0,0,23.579-4.368c14.568-3.647,28.556-8.778,41.477-16.547A81.112,81.112,0,0,0,316.917,240.2a46.427,46.427,0,0,0,10.065-20.518c.292-1.491.425-3.012.636-4.519.034-.241.1-.477.148-.716v-4.991c-.191-1.393-.343-2.792-.578-4.176a44.656,44.656,0,0,0-7.95-18.537c-5.511-7.747-12.583-13.825-20.48-19-11.091-7.262-23.182-12.327-35.815-16.183a193.062,193.062,0,0,0-24.89-5.768c-6.781-1.122-13.6-1.953-20.458-2.4-3.428-.221-6.862-.356-10.293-.537-.272-.014-.542-.079-.813-.12H193.512c-1.96.108-3.924.171-5.88.333-5.575.461-11.159.859-16.718,1.469a186.106,186.106,0,0,0-27.388,5.187c-14.034,3.719-27.49,8.853-39.9,16.495A80.1,80.1,0,0,0,83.075,183.7a46.485,46.485,0,0,0-10.06,20.52c-.287,1.464-.421,2.957-.63,4.436-.038.27-.1.536-.152.8v4.991c.191,1.394.344,2.795.579,4.181A44.616,44.616,0,0,0,80.719,237.1Zm5.057-37.85A47.776,47.776,0,0,1,98.04,183.483a94.851,94.851,0,0,1,24.629-15.256,167.439,167.439,0,0,1,38.91-11.529,221.669,221.669,0,0,1,38.047-3.312,230.466,230.466,0,0,1,27.626,1.648A180.433,180.433,0,0,1,272.9,166.353a102.966,102.966,0,0,1,26.841,15.255,51.314,51.314,0,0,1,13.481,15.641c5.669,10.686,5.082,21.183-1.165,31.423-3.992,6.544-9.476,11.68-15.624,16.15a111.406,111.406,0,0,1-25.861,13.635,166.787,166.787,0,0,1-24.1,7.146,207,207,0,0,1-24.033,3.786,225.447,225.447,0,0,1-26.823,1.083,224.019,224.019,0,0,1-27.577-2.237,186.273,186.273,0,0,1-32.073-7.436,120.39,120.39,0,0,1-30.389-14.548c-6.571-4.5-12.464-9.7-16.9-16.4A32.867,32.867,0,0,1,82.973,214.1,29.533,29.533,0,0,1,85.776,199.247Z"/><path class="logoclass" d="M131.424,228.643c.107-.629.349-.736.911-.731,2.772.025,5.544.017,8.315.01a61.323,61.323,0,0,0,13.948-1.344c4.562-1.071,8.775-2.889,11.89-6.521a26.941,26.941,0,0,0,6.49-19.365,14.731,14.731,0,0,0-6.376-11.7,20.1,20.1,0,0,0-11.893-3.62c-9.534-.075-19.07-.031-28.6-.033-.191,0-.383.019-.64.032l-10.776,58.466h14.073C129.662,238.733,130.568,233.692,131.424,228.643Zm6.138-32.6a3.639,3.639,0,0,1,.433-.055c3.908.005,7.816-.016,11.723.034a13.731,13.731,0,0,1,5.5,1.11,6.066,6.066,0,0,1,3.869,5.618,17.125,17.125,0,0,1-1.648,8.143c-1.832,3.873-5.138,5.7-9.2,6.018-4.19.324-8.411.264-12.618.366-.661.016-1.322,0-2.07,0Z"/><path class="logoclass" d="M240.557,243.835c.9-5.1,1.807-10.141,2.663-15.19.106-.627.344-.738.909-.733,2.772.026,5.544.017,8.315.01a61.341,61.341,0,0,0,13.948-1.343c4.562-1.071,8.775-2.888,11.891-6.52a26.94,26.94,0,0,0,6.491-19.364,14.731,14.731,0,0,0-6.375-11.7,20.1,20.1,0,0,0-11.892-3.621c-9.534-.076-19.07-.031-28.6-.033-.191,0-.383.018-.642.031l-10.777,58.468Zm8.8-47.794a3.5,3.5,0,0,1,.429-.056c3.908.005,7.816-.015,11.723.033a13.626,13.626,0,0,1,5.577,1.141,6.057,6.057,0,0,1,3.8,5.583,17.152,17.152,0,0,1-1.646,8.144c-1.83,3.873-5.136,5.7-9.2,6.022-4.135.324-8.3.264-12.452.366-.716.018-1.432,0-2.241,0Z"/><path class="logoclass" d="M194.073,196.1c4.588,0,9.075-.048,13.559.034a11.263,11.263,0,0,1,3.3.742,3.066,3.066,0,0,1,2.2,2.773,16.288,16.288,0,0,1-.109,4.284c-1.249,6.185-2.628,12.344-3.959,18.512-.389,1.8-.774,3.6-1.169,5.446h14.152c.071-.263.145-.5.2-.735,1.186-5.464,2.4-10.921,3.545-16.393a113.134,113.134,0,0,0,2.191-11.488c.734-7.135-2.259-11.354-9.008-12.953a41.118,41.118,0,0,0-9.318-.972c-4.13-.021-8.26-.009-12.391-.011h-1l4.426-21.254H186.724l-13.332,63.8h13.972Z"/></svg>