<svg id="5d23911d-df2a-4e2c-b2aa-2ccabaabf458" data-name="Layer 1" xmlns="http://www.w3.org/2000/svg" preserveAspectRatio="xMaxYMax meet" viewBox="0 0 400 400"><style type="text/css">.logoclass{fill:#dde8e7}</style><path class="logoclass" d="M61.538,65.23c-1.744,0-2.129.384-2.128,2.128q.076,133.705.044,267.411H328.949V65.275Q195.243,65.275,61.538,65.23ZM314.155,322.694H74.77c-3.479,0-3.48,0-3.48-3.509q.013-119.577-.033-239.154c0-2.624.789-3.164,3.253-3.16q60.078.109,120.156.052v-.03H314.126c3.444,0,3.446,0,3.446,3.311q0,119.577,0,239.154C317.577,322.69,317.574,322.694,314.155,322.694Z"/><path class="logoclass" d="M190.445,215.825q-9.308-32.377-18.589-64.762c-.472-1.657-1.168-2.288-2.9-2.2-2.676.137-5.365.036-8.048.037-3,0-6.006.044-9.008-.021-1.219-.026-1.645.4-1.77,1.622a48.593,48.593,0,0,1-1.158,7.931c-5.573,20.3-11.264,40.574-16.91,60.857q-4.362,15.67-8.694,31.349c-.729,2.635-.58,2.814,2.2,2.816,3.642,0,7.285-.056,10.924.027,1.572.036,2.239-.582,2.615-2.088,2.146-8.6,4.406-17.175,6.57-25.773a1.893,1.893,0,0,1,2.211-1.713q13.128.1,26.258,0c1.448-.012,1.946.5,2.292,1.835,2.218,8.52,4.574,17,6.767,25.531a2.513,2.513,0,0,0,2.944,2.21c4.151-.081,8.305-.023,12.458-.029,2.471,0,2.584-.136,1.909-2.5Q195.492,233.388,190.445,215.825ZM150.124,208.5l10.868-43.812,11.2,43.812Z"/><path class="logoclass" d="M244.57,176.113c-13.456-3.932-26.695,1.538-33.42,14.259-7.436,14.066-7.966,28.91-2.94,43.814,4.346,12.889,14.5,20.023,28.048,20.5,6.672.236,13.264-.153,19.563-2.744a3.458,3.458,0,0,0,2.518-3.748c-.125-3.126-.021-6.26-.042-9.39,0-.661-.128-1.322-.214-2.158-.731.224-1.215.332-1.667.517a35.815,35.815,0,0,1-19.158,2.226c-9.342-1.394-15.648-9.01-15.157-20.907,1.9,0,3.682.028,5.463,0,10.978-.2,21.955-.434,32.933-.619a2.195,2.195,0,0,0,2.484-2.242c.82-6.766.956-13.51-.9-20.13C259.465,186.158,254.322,178.963,244.57,176.113Zm1.833,29.068c-8.026.087-16.053.063-24.313.063a23.5,23.5,0,0,1,3.484-10.933,11.472,11.472,0,0,1,11.061-5.509c5,.373,8.271,3.244,9.828,7.86a33.023,33.023,0,0,1,1.177,7.108A1.914,1.914,0,0,1,246.4,205.182Z"/></svg>