<svg id="c45319ac-643a-430f-942f-338d0e801a78" data-name="Layer 1" xmlns="http://www.w3.org/2000/svg" preserveAspectRatio="xMaxYMax meet" viewBox="0 0 400 400"><style type="text/css">.logoclass{fill:#dde8e7}</style><path class="logoclass" d="M99.58,210.611c18.391,49.36,52.856,79.812,105.856,86.687,30.99,4.02,59.547-3.008,84.063-23.333a100.024,100.024,0,0,0,24.866-31.106c-5.491,4.41-9.9,8.5-14.825,11.813-24.8,16.67-52.431,19.569-80.908,14.468-36.564-6.55-65.031-26.33-85.644-57.055-13.91-20.733-21.136-43.684-18.828-68.879.845-9.222,3.222-18.3,4.8-26.894-10.434,11.6-19.386,24.824-22.8,41.146-.977,4.674-1.83,9.375-2.74,14.063v11c.394,1.6.836,3.186,1.173,4.8C96.218,195.1,96.837,203.249,99.58,210.611Z"/><path class="logoclass" d="M256.777,226.312c26.772-1.97,47.651-13.434,61.39-36.913.664-1.135,1.134-2.383,1.695-3.579l-1.093-.807a9.886,9.886,0,0,1-1.265,2.172c-13.6,13.678-30.265,20.167-49.349,20.6-21.626.489-41.1-6.24-57.971-19.473-23.238-18.222-37.146-41.571-35.924-72.062.261-6.512,2.1-12.96,3.182-19.265a1.191,1.191,0,0,0-.564.318c-25.908,31.684-18.6,70.711,5,97.6C201.545,217.312,226.406,228.546,256.777,226.312Z"/><path class="logoclass" d="M239.8,152.1c23.556,17.882,58.822,14.217,71.343-7.074-20.218,11.628-39.69,9.191-57.723-2.136-21.271-13.36-31.421-32.906-26.623-58.8C210.4,103.063,216.844,134.674,239.8,152.1Z"/></svg>