<svg id="07504405-e459-4304-8f28-caac8af8bbea" data-name="Layer 1" xmlns="http://www.w3.org/2000/svg" preserveAspectRatio="xMaxYMax meet" viewBox="0 0 400 400"><style type="text/css">.logoclass{fill:#dde8e7}</style><path class="logoclass" d="M137.066,259.834c1,.017,1.994.006,2.991.006q5.515,0,11.03,0c1.182,0,1.369-.158,1.687-1.307.025-.09.042-.182.066-.273q3.588-13.6,7.177-27.2c.39-1.478.3-1.356,1.732-1.357q10.375-.01,20.75-.005c2.742,0,5.484,0,8.225.005.847,0,.875.042,1.115.822.046.149.08.3.121.451q3.15,11.539,6.3,23.077c.427,1.562.842,3.128,1.289,4.684.244.851.534,1.052,1.4,1.094.187.009.374.006.561.006l14.955,0a6.592,6.592,0,0,0,.747-.017c.558-.065.788-.316.713-.873a9.251,9.251,0,0,0-.337-1.358Q203.945,211.243,190.3,164.9q-1.623-5.513-3.253-11.025c-.313-1.055-.477-1.17-1.578-1.221-.342-.016-.685-.022-1.028-.022q-4.346,0-8.693,0v-.007h-2.617c-2.4,0-4.8-.009-7.2.007-1.057.007-1.257.22-1.319,1.249-.013.218-.012.436-.024.654a36.4,36.4,0,0,1-1.2,8.111q-13.587,47.483-27.119,94.982a7.051,7.051,0,0,0-.236,1C135.908,259.545,136.14,259.818,137.066,259.834ZM164.7,212.723c2.668-10.279,5.383-20.546,7.987-30.841,1.046-4.134,1.846-8.329,2.761-12.5.065-.3.151-.592.228-.888l.278-.027c3.478,15.184,7.673,30.186,11.546,45.4a9.681,9.681,0,0,1-1.123.146q-10.466.01-20.932,0a9,9,0,0,1-.994-.12C164.551,213.432,164.612,213.074,164.7,212.723Z"/><path class="logoclass" d="M248.86,180.815c-.186-.015-.374-.011-.56-.011l-14.2,0a5.978,5.978,0,0,0-.654.017c-.671.074-.938.357-.95,1.026-.009.529.017,1.059.017,1.588q0,18.361,0,36.721h.012q0,18.875,0,37.749c0,1.749.191,1.944,1.913,1.945q6.821,0,13.642,0c1.758,0,1.877-.126,1.878-1.934q.006-37.562.01-75.125a7.527,7.527,0,0,0-.029-.933C249.846,181.125,249.575,180.874,248.86,180.815Z"/><path class="logoclass" d="M238.369,169.393a11.989,11.989,0,0,0,6.807-.381,8.336,8.336,0,0,0,5.5-5.894,11.588,11.588,0,0,0,.081-6.184,8.793,8.793,0,0,0-6.549-6.627,10.862,10.862,0,0,0-3.981-.331,9.181,9.181,0,0,0-7.759,4.933,10.851,10.851,0,0,0-1.161,4.967c.085.772.131,1.551.26,2.315A8.536,8.536,0,0,0,238.369,169.393Z"/><path class="logoclass" d="M334.362,334.77V65.275q-133.706,0-267.411-.044c-1.744,0-2.129.384-2.128,2.128q.076,133.705.044,267.411ZM79.922,76.871q60.078.109,120.156.052v-.03H319.539c3.444,0,3.446,0,3.446,3.311q0,119.577,0,239.154c0,3.333,0,3.336-3.421,3.336H80.182c-3.479,0-3.48,0-3.48-3.509q.013-119.577-.034-239.154C76.667,77.407,77.458,76.867,79.922,76.871Z"/></svg>