<svg id="a56b039f-b732-4efa-8556-75eb15ecc195" data-name="Layer 1" xmlns="http://www.w3.org/2000/svg" preserveAspectRatio="xMaxYMax meet" viewBox="0 0 400 400"><style type="text/css">.logoclass{fill:#dde8e7}</style><path class="logoclass" d="M329.5,69.181H70.5v259h259Zm-12,247H82.5v-235h235Z"/><path class="logoclass" d="M254.958,297.924a43.241,43.241,0,0,0,18.688,3.707c1.845-.086,3.706-.048,5.532-.282a35.32,35.32,0,0,0,14.236-4.8,23.174,23.174,0,0,0,10.723-13.926,30.1,30.1,0,0,0,.65-12.86,25.715,25.715,0,0,0-3.7-10.165,30.62,30.62,0,0,0-10.323-9.33,147.578,147.578,0,0,0-15.218-7.491,80.018,80.018,0,0,1-8.079-4.135,8.153,8.153,0,0,1-4.119-7.942,7.342,7.342,0,0,1,4.392-6.715,11.794,11.794,0,0,1,5.85-.83A11.037,11.037,0,0,1,279.276,225a17.961,17.961,0,0,1,4.252,4.634c1.12,1.517,1.167,1.535,2.694.525,4.141-2.74,8.254-5.523,12.4-8.263.723-.478.814-.948.309-1.625-.793-1.065-1.531-2.172-2.339-3.224a26.286,26.286,0,0,0-13.566-9.578,34.307,34.307,0,0,0-7.76-1.149,35.356,35.356,0,0,0-12.27.924c-8.793,2.58-15.015,7.9-17.847,16.818-1.234,3.884-1.044,7.863-.729,11.838a18.724,18.724,0,0,0,.663,3.908A26.646,26.646,0,0,0,255,253.744a62.868,62.868,0,0,0,11.392,6.365c4.373,2.022,8.779,3.98,13.089,6.128,3.924,1.956,6.643,4.8,6.138,9.665a7.633,7.633,0,0,1-1.509,4.07,10.927,10.927,0,0,1-5.409,3.577,19.472,19.472,0,0,1-8.979.682,17.406,17.406,0,0,1-9.382-4.077,31.415,31.415,0,0,1-5.781-6.645c-.305-.482-.585-.695-1.173-.351-4.659,2.727-9.338,5.421-14,8.141-1.143.667-1.133.7-.469,1.872A34.114,34.114,0,0,0,254.958,297.924Z"/><path class="logoclass" d="M161.879,224.358H185.9c1.357,0,1.357,0,1.357,1.36q0,36.768,0,73.535c0,1.25,0,1.254,1.246,1.254q8.368,0,16.736,0c1.24,0,1.242,0,1.242-1.239q0-18.427,0-36.854t0-36.854c0-1.2,0-1.2,1.168-1.2H231.93c1.408,0,1.418,0,1.4-1.37-.036-2.369-.1-4.737-.126-7.106-.026-2.544-.04-5.088-.009-7.631.01-.793-.254-1.034-1.051-1.035-10.9-.02-21.791-.108-32.686-.106-12.341,0-24.681.079-37.021.122-1.846.007-1.87.006-1.879,1.871-.021,4.625-.017,9.25-.022,13.874C160.53,224.355,160.531,224.357,161.879,224.358Z"/></svg>