<svg id="6478a005-7a72-44cf-9eb0-83f37670207b" data-name="Layer 1" xmlns="http://www.w3.org/2000/svg" preserveAspectRatio="xMaxYMax meet" viewBox="0 0 400 400"><style type="text/css">.logoclass{fill:#dde8e7}</style><path class="logoclass" d="M166.219,178.04c.256-.754.5-1.5.766-2.262l-.99-1.372-.285-.4c-.541-.749-1.2-1.522-1.888-2.342a25.662,25.662,0,0,1-5.291-8.407c-.93-2.72-1.945-5.5-2.927-8.181q-.51-1.4-1.019-2.8c-10.733,6.559-17.375,16.455-20.93,29.02a19.281,19.281,0,0,0-.5,2.385c2.709-3.789,6.383-5.949,10.424-6.068,4.211-.132,8.142,1.961,11.088,5.866a38.873,38.873,0,0,1,2.8,4.454,17.335,17.335,0,0,0,2.789,4.1l.272.253.963.9.105.38c.625-2.478,1.325-4.985,2.079-7.527h-3.147l2.326-8Z"/><path class="logoclass" d="M304.735,243.928c-.023-21.312.16-42.625-.065-63.934-.1-9.746-.363-19.865-4.326-28.764-13.572-30.473-35.682-51.526-69.877-55.474-22.394-2.585-45.085-1.433-67.659-.47a12.293,12.293,0,0,1,2.028,6.272,25.845,25.845,0,0,0,.658,4.342,12.014,12.014,0,0,1,3.274-1.1,9.277,9.277,0,0,1,7.786,1.658A9.083,9.083,0,0,1,179.9,113.5c.055,1.266.091,2.532.126,3.8l.055,1.865,28.7.127a15.685,15.685,0,0,0,.715-1.8l.263-.82.483-.713c4.458-6.581,9.168-10,14.4-10.444,5.13-.45,10.156,1.986,15.38,7.412,2.172,2.258,4.584,3.21,8.9,3.513,4.688.33,11.354,1.373,15.105,6.6,2.647,3.69,3.161,8.446,1.568,14.54l-.273,1.05-.624.887c-.2.286-.407.576-.611.864,7.33,7.992,12.306,17.168,14.206,27.892a12.4,12.4,0,0,1,1.311.053l1.109.105,1,.5c2.081,1.038,6.955,3.47,7.831,8.5.809,4.647-2.187,8.534-5.544,12.042a6.037,6.037,0,0,0-.826,1.085c.651-.358,1.386-.826,2.24-1.379,4.457-2.884,9.07-2.679,12.742.514a11.983,11.983,0,0,1,4.1,11.281c-1.036,6.493-6.835,7.632-8.741,8.006a32.783,32.783,0,0,0-10.678,3.655l-.437.264-.475.186c-.732.288-1.461.582-2.191.874,0,5.166.007,10.331-.058,15.5-.1,8.1-3.111,11.921-11.093,12.5a144.625,144.625,0,0,1-28.377-.24c-5.981-.748-9.25-4.049-9.364-9.862-.173-8.775-.156-17.554-.114-26.333a53.57,53.57,0,0,1-4.081-11.342c-.261-.956-.521-1.914-.8-2.865-.363-.8-.669-1.594-.943-2.307a16.1,16.1,0,0,0-1.133-2.54l-.085-.007a1.2,1.2,0,0,0-.295.011,13.692,13.692,0,0,0-1.857,3.148c-.252.509-.5,1.011-.756,1.5-2.361,4.484-4.574,9.224-6.715,13.808-.922,1.973-1.843,3.946-2.78,5.911a63.438,63.438,0,0,1-4.868,8.748c-.93,8.061-4.867,14.944-11.355,18.753,3.205,3.328,6.691,6.625,10.838,8.7l.954.477.608.646,1.395-3.916,6.538,9.686,11.967,7.98,1.407,1.418c.738.741,1.477,1.481,2.2,2.236q.685.717,1.291,1.453c14.16.512,28.334-.057,42.5.177,12.458.206,23.049-2.905,28.325-15.7a3.71,3.71,0,0,1,2.612-2.11v-2C303.873,246.648,304.736,245.114,304.735,243.928Z"/><path class="logoclass" d="M253.087,310.466l.765-.348.832-.125c.333-.05.667-.095,1-.141l.109-.017c.073-1.684.132-3.367.122-5.048a63.61,63.61,0,0,0-4.508,6.289A11.048,11.048,0,0,0,253.087,310.466Z"/><path class="logoclass" d="M191.121,291.846l.177-.195c-2.841.011-5.693.285-8.525.218-9.785-.233-19.624.462-29.239-2.052-25.739-6.731-45.179-31.88-45.554-58.795-.109-7.8.245-15.6-.064-23.393l-.321.027-.452-.029a35.006,35.006,0,0,1-5.186-.835,14.27,14.27,0,0,0-4.718-.549c-4.19.661-6.813-.706-8.273-1.967-3.314-2.866-3.266-7.273-3.245-9.154.05-4.413,1.981-6.861,3.593-8.138a8.849,8.849,0,0,1,1.21-.806,12.334,12.334,0,0,1-3.985-5.463c-.807-2.013-2.053-7.178,3.79-11.655,2.2-1.683,6.807-3.856,13.029.49.956.668,1.8,1.378,2.549,2a16.031,16.031,0,0,0,2.3,1.728c.275-1.731.563-3.46.9-5.178,3.8-19.286,15.579-32.414,32.287-41.742.084-.047.173-.087.259-.131-.612-.919-1.12-1.837-1.565-2.649-.689-1.256-1.34-2.441-1.9-2.708-5.187-2.454-7.813-6.97-7.209-12.39a9.935,9.935,0,0,1,3.055-6.168c-28.9,13.386-51.126,44.96-51.322,76.4-.1,16.647.049,33.3-.029,49.943-.142,30.5,13.212,54,37.245,71.922,16.336,12.185,34.868,16.112,54.456,15.9.039-.335.081-.667.125-1l.1-.737.276-.69a42.74,42.74,0,0,1,8-13.133Q187,296.388,191.121,291.846Z"/><path class="logoclass" d="M258.51,316.148c-.971.2-1.959.3-2.94.448a15.668,15.668,0,0,1-7.672,1.447c-4.228-.287-5.307-1.8-3.537-5.77,2.572-5.765,6.89-10.385,10.618-15.386,1.151-3.263,1.282-6.461-2.451-7.938-4.126-1.632-5.812,1.775-7.646,4.515a24.156,24.156,0,0,1-2.483,10.583c-.879,1.9-2.5,3.327-4.758,2.956-2.638-.434-1.824-2.729-1.939-4.439-.146-2.159,1.085-5.332-2.474-5.415-3.8-.089-3.537,3.193-3.579,5.875-.008.5.057,1,.066,1.5.058,3.168.616,6.839-3.561,7.743-4.537.982-4-3.468-5.249-5.818-.845-1.592-.944-3.626-3.471-3.514a3.733,3.733,0,0,0-3.18,2.107c-1.157,2.039.621,2.981,1.762,4.088,1.084,1.051,2.211,2.035,1.937,3.79-5.937-1.349-7.915-6.731-3.951-10.955,3.177-3.385,6.614-6.527,9.935-9.776,1.114-1.222,2.276-2.4,3.334-3.674,5.107-6.13,4.877-12.373-.644-18.148-1.019-1.065-2.07-2.1-3.106-3.149l-11.886-7.925c-.463-.289-1.433-.106-1.134-1.1-3.187-.623-5.208-2.918-7.288-5.129-5.287-2.643-9.436-6.689-13.442-10.91-4.208-1.515-4.34-4.042-2.231-7.588a55.787,55.787,0,0,1,7.585-9.716,57.861,57.861,0,0,0,10.718-15.887c3.183-6.672,6.183-13.442,9.624-19.979,1.846-3.507,3.365-8.108,8.515-7.852,5.217.259,5.762,5.134,7.493,8.719,2.292,7.7,3.41,15.9,11.211,20.8,7.409,4.659,15.037,5.808,23.224,2.9,4.658-1.653,9.217-3.585,13.821-5.391a38.093,38.093,0,0,1,12.625-4.408c1.851-.363,3.6-.745,3.972-3.065a6.024,6.024,0,0,0-2.117-5.807c-1.744-1.516-3.527-1.309-5.465-.055-2.633,1.7-5.317,3.466-8.711,3.148-1.542,1.291-3.318,1.12-5.591.84,1.572-4.466,1.761-9.251,5.214-12.828,5.509-5.755,5.379-8.026-.631-11.023-3.066-.293-3.757,1.6-4.385,4.155-1.531,6.217-4.167,11.845-10.186,15.589-2.148-3.2-.872-6.128-.076-9.054.441-1.622.909-3.267-.794-4.532a5.16,5.16,0,0,0-5.626-.394c-2.2.978-1.339,2.741-1.321,4.293.014,1.162.109,2.327.229,3.484.845,8.163-.377,9.521-8.848,6.407-9.508-3.5-12.291-12.26-14.359-21.263-1.393-6.061-.224-10.277,5.366-14.194,8.471-5.937,14.8-14.261,20.76-22.726,2.32-8.879-.982-12.913-11.291-13.638-4.891-.344-9.123-1.516-12.8-5.337-7.918-8.227-13.972-7.38-20.487,2.236a18.816,18.816,0,0,1-9.215,11.237,59.788,59.788,0,0,0-18.2,14.318c-.426,2.713-2.328,4.7-3.551,7.015-.727,1.373-.845,4.372-3.305,3.319a7.89,7.89,0,0,1-5.01-6.895c-.035-2.07,1.941-.822,3.018-.431,3.3,1.2,4.257-.333,4.039-3.338-.952-.9-1.751-2.241-2.881-2.635-7.44-2.593-8.177-8.377-7.351-14.933.331-2.627.877-5.227,1.325-7.839-.056-1.793-.094-3.586-.171-5.378-.113-2.612-1.705-3.505-4.017-3.066-2.437.464-3.888,1.837-3.042,4.593.242.791.588,1.556.762,2.359.2.919.657,2.062-.635,2.521-1.12.4-1.733-.354-2.32-1.3a36.432,36.432,0,0,1-5.808-16.924,5.513,5.513,0,0,0-2.973-5.049l-2.412-.115c-3.329,2.876-3.281,5.58-.785,9.362a33.1,33.1,0,0,1,4.532,10.211c.438,1.78.357,3.009-1,3.768-1.569.876-2.375-.844-3.062-1.75-2.3-3.034-4.338-6.265-6.571-9.352-1.586-2.193-3.341-4.287-6.545-3.4a4,4,0,0,0-3.091,3.53c-.333,2.986,1.1,5.017,3.811,6.3,3.193,1.51,4.147,4.869,5.94,7.529,9.609,6.22,11.2,16.454,13.247,26.459,1.429,3.959,2.911,7.9,4.273,11.884,1.258,3.68,4.188,6.16,6.366,9.179,3.83.349,3.811,2.384,2.723,5.425a182.316,182.316,0,0,0-9.209,35.815c-3.872-5.323-6.449-10-7.932-15.315-2.812-2.622-4.019-6.324-6.283-9.325-3.6-4.778-8.727-4.645-12.1.414A12.937,12.937,0,0,0,135.6,194.7c-.144,2.306-.5,4.6-.773,6.947-1.812-.109-2.387-1.238-2.863-2.476-1.982-4.891-3.784-9.865-6.023-14.635-1.062-2.263-2-6.279-5.8-4.065-3.643,2.119-1.324,4.737.547,6.972.6.712,1.337,1.422,1.008,2.5-5.868-1.78-10.093-5.955-14.441-9.95-2.989-.8-4.927-3.181-7.331-4.86-1.889-1.319-3.948-2.176-5.945-.646-1.375,1.053-2.734,2.5-1.87,4.659.93,2.318,2.26,3.771,5.106,3.821,5.032.089,8.445,3.146,11.251,7l4.287,4.636c-1.837,1.688-3.54.495-5.226.167-3.5-.984-6.97-2.117-10.514-2.908-3.1-.693-5.25.31-5.291,3.986-.035,3.157.36,5.792,4.587,5.128,3.856-.606,7.461,1.077,11.227,1.323,4.172-.357,6.709,2.275,9.212,5.005,8.989,9.8,14.167,21.993,20.814,33.259,1.509,2.558,3.225,5.245,3.746,8.074.751,4.076,2.613,5.416,6.452,4.543,8.585-2.346,15.726,1.322,22.7,5.532,4.077,2.463,8.056,5.088,12.08,7.64l31.472,12.957c-5.217,5.088-9.11,10.793-15.459,13.937q-5.614,6.187-11.228,12.374a37.027,37.027,0,0,0-6.869,11.328c-.908,6.728.083,8.311,6.876,9.08,9.849,1.115,19.706,2.109,29.45,3.98.768.148,1.691-.1,1.912,1.024h1c10.526-2.018,20.6-6.658,31.733-5.226a44.521,44.521,0,0,0,8.429-.238c3.406-.219,5.551-1.429,5-5.548C264.282,315.819,261.83,315.48,258.51,316.148ZM121.74,190.6q.018-.236.037-.473l.51.263Z"/><path class="logoclass" d="M210.521,258.094c-.013.035-.012.058-.022.091.035.007.066.02.1.026Z"/></svg>