<svg id="a2e6a49b-444d-4d8c-97e1-fa8bd09921df" data-name="Layer 1" xmlns="http://www.w3.org/2000/svg" preserveAspectRatio="xMaxYMax meet" viewBox="0 0 400 400"><style type="text/css">.logoclass{fill:#dde8e7}</style><path class="logoclass" d="M136.005,251.322c0,2.078.82,2.5,2.661,2.466,4.8-.092,9.6-.029,14.4-.031,3.431,0,3.437,0,3.438-3.373,0-9.762,0-19.525,0-29.651,1.018,0,1.739.029,2.457,0,5.189-.24,10.495.122,15.547-.842,29.6-5.648,34.757-34.143,26.188-52.218-5.919-12.484-17.116-17.451-30.094-18.112-10.712-.545-21.491.228-32.241.382-1.783.026-2.388.749-2.384,2.565Q136.063,201.913,136.005,251.322Zm20.709-85.25c7.072-2.521,18.176-.126,22.376,4.815,4.838,5.693,5.811,17.508,1.757,24.668-5.495,9.705-14.658,9.287-24.133,8.332Z"/><path class="logoclass" d="M218.124,213.522c3.655,3.234,8.241,5.456,12.528,7.921,3.144,1.808,6.595,3.086,9.727,4.912,3.179,1.853,4.181,4.431,3.37,7.277-.653,2.293-3.2,4.115-6.466,4.132a27.224,27.224,0,0,1-8.347-.779c-5.158-1.659-10.15-3.851-15.155-5.956-2.122-.892-2.676-.7-2.717,1.609-.04,2.235-.009,4.471-.007,6.706,0,10.032-.025,10.114,8.333,13.085,11.592,4.121,22.995,4.232,34.019-1.99,13.025-7.351,15.51-29.147,2.128-38.09-3.562-2.381-7.368-4.41-11.133-6.47-3.622-1.982-7.4-3.679-10.985-5.725a5.259,5.259,0,0,1-2.813-5.652c.443-2.543,2.29-3.979,4.624-4.7a13.808,13.808,0,0,1,3.905-.583c6.441-.058,12.362,1.912,18.05,4.767,2.166,1.087,2.664.807,2.731-1.553.115-4.053.284-8.116.095-12.159a4.433,4.433,0,0,0-2-3.238c-10.89-5.185-22.1-6.274-33.319-1.281C209.593,182.472,206.011,202.8,218.124,213.522Z"/><path class="logoclass" d="M62.568,67.359q.076,133.705.044,267.411H332.107V65.275Q198.4,65.275,64.7,65.23C62.952,65.229,62.567,65.615,62.568,67.359Zm15.1,9.513q60.078.109,120.156.052v-.03H317.284c3.444,0,3.446,0,3.446,3.311q0,119.577,0,239.154c0,3.333,0,3.336-3.421,3.336H77.928c-3.479,0-3.48,0-3.48-3.509q.013-119.577-.034-239.154C74.412,77.407,75.2,76.867,77.668,76.871Z"/></svg>