<svg id="54d54ad3-effe-4c9f-b7e4-9692f397f72c" data-name="Layer 1" xmlns="http://www.w3.org/2000/svg" preserveAspectRatio="xMaxYMax meet" viewBox="0 0 400 400"><style type="text/css">.logoclass{fill:#dde8e7}</style><path class="logoclass" d="M280.709,108.453q-80.424,0-160.849,0c-6.159,0-9.29,2.332-11.085,8.236-.049.161-.213.288-.324.431V282.754c.179.5.368.991.535,1.492a9.967,9.967,0,0,0,6.946,6.8c.448.134.877.33,1.315.5H273.72l-33.2-33.023c-1.52.957-3.079,2-4.7,2.947a69.27,69.27,0,0,1-33.424,9.376c-16.581.479-31.607-4.017-44.778-14.1-15.135-11.581-24.093-26.984-26.948-45.8-3.336-21.984,1.958-41.684,16.692-58.475a66.511,66.511,0,0,1,40.916-22.292c21.755-3.373,41.351,1.715,58.179,16.027,13.314,11.324,21.017,25.913,23.365,43.256,2.5,18.45-1.667,35.338-12.1,50.714-.527.777-1.041,1.351-.059,2.311q16.573,16.2,33.064,32.479a7.573,7.573,0,0,0,.821.568v-1.971q0-77.127,0-154.254C291.547,112.595,287.415,108.454,280.709,108.453Z"/><path class="logoclass" d="M196.109,154.173c-13.556,1.244-24.243,7.445-31.751,18.755-7.467,11.248-9.168,23.725-6.667,36.8,4.024,21.048,20.077,34.461,38.055,36.011,11.957,1.031,22.656-1.968,31.749-9.811,11.112-9.584,15.679-22.155,15.914-37.354-.132-1.577-.243-3.956-.54-6.311C239.934,169.042,220.4,151.944,196.109,154.173Z"/></svg>