<svg id="82d02842-18d6-4a61-b678-a1ea2ff154de" data-name="Layer 1" xmlns="http://www.w3.org/2000/svg" preserveAspectRatio="xMaxYMax meet" viewBox="0 0 400 400"><style type="text/css">.logoclass{fill:#dde8e7}</style><path class="logoclass" d="M119.093,237.23c2.222,24.768,4.467,49.534,6.577,74.312.2,2.383,1.166,3.27,3.3,3.849q21.3,5.785,42.555,11.757c9.174,2.572,18.315,5.258,27.471,7.893h1.829c1.145-.4,2.272-.857,3.437-1.181q31.537-8.761,63.081-17.5c6.646-1.844,6.791-1.843,7.435-8.766,2.03-21.83,3.937-43.671,5.891-65.507q2.62-29.267,5.238-58.535c1.5-16.782,2.966-33.568,4.522-50.345.244-2.628-.27-3.775-3.308-3.771q-87.133.126-174.266.073c-1.055,0-2.111.17-3.336.275.858,9.9,1.657,19.4,2.508,28.893Q115.544,197.958,119.093,237.23Zm27.736-71.609c16.557.117,33.114.057,49.672.057h3.955v-.189c17.979,0,35.958.032,53.936-.036,2.588-.01,2.759,1.375,2.583,3.31q-1.047,11.521-2.064,23.044-1.7,18.949-3.4,37.9c-1.338,14.856-3.135,29.691-3.809,44.577-.285,6.3-2.994,8.045-8.33,9.354-12.022,2.947-23.875,6.577-35.843,9.757a11.908,11.908,0,0,1-5.882,0c-13.727-3.685-27.4-7.569-41.105-11.34-1.69-.465-2.965-.987-3.133-3.071-.805-10.018-1.654-20.034-2.609-30.038-.244-2.559.593-3.425,3.152-3.357,5.38.144,10.767.113,16.149.011,2.246-.043,3.276.577,3.373,3.051.166,4.255.815,8.488,1.075,12.742.115,1.874.954,2.633,2.667,3.078,6.977,1.809,13.918,3.761,20.9,5.566a6.743,6.743,0,0,0,3.252-.027c7.072-1.845,14.1-3.866,21.183-5.653a3.538,3.538,0,0,0,3.025-3.567c.644-7.481,1.234-14.969,2.005-22.437.3-2.9-.568-3.882-3.6-3.869-15.029.066-30.06-.166-45.089-.091-2.889.015-3.942-.9-4.106-3.7-.316-5.369-.842-10.728-1.371-16.082-.211-2.139.608-3.049,2.722-2.86.3.027.609,0,.914,0,16.344-.15,32.687-.357,49.031-.392,2.71-.006,4.044-.547,4.2-3.563.28-5.365.915-10.715,1.489-16.061.243-2.264-.613-3.254-2.877-3.036a9.017,9.017,0,0,1-.914,0c-26.2-.153-52.394-.363-78.591-.385-3.132,0-4.262-.951-4.421-4.011-.264-5.065-.777-10.124-1.372-15.164C143.283,166.489,144.048,165.6,146.829,165.621Z"/><path class="logoclass" d="M185.2,91.251c3.657,3.18,6.7,7.07,9.99,10.666.48.524.846,1.152,1.653,2.27H181.991v9.647c10.358,0,20.489.032,30.619-.084.566-.006,1.516-1.178,1.609-1.9.495-3.835-.094-7.165-3.286-10.1-4.127-3.794-7.684-8.208-12.017-12.934,4.674,0,8.5-.063,12.329.027,1.852.044,2.556-.658,2.469-2.5-.116-2.433-.066-4.873-.087-7.31h-31.7C181.563,83.492,181.159,87.735,185.2,91.251Z"/><path class="logoclass" d="M224.023,92.127c3.866,3.322,7.021,7.471,11.042,11.857h-8.583c-6.959,0-6.872,0-6.861,6.949,0,2.245.66,3,2.948,2.968,9.037-.112,18.077-.04,27.116-.061a17.663,17.663,0,0,0,2.251-.279c.939-7.234.848-7.511-3.731-12.468-3.611-3.909-7.21-7.829-11.3-12.268H242.8c9.624,0,9.624,0,8.613-9.784h-31.7C219.146,84.058,219.74,88.447,224.023,92.127Z"/><path class="logoclass" d="M151.727,113.923c6.791-.212,13.593-.067,20.39-.067h3.68V103.582c-4.454,0-8.79-.066-13.123.029-2.058.045-2.969-.648-2.875-2.8a72.251,72.251,0,0,0-.018-8.213c-.19-2.691.831-3.59,3.485-3.477,4.128.175,8.269.046,12.568.046V79.041H147.8c.009,10.348.15,20.7-.05,31.042C147.684,113.28,148.727,114.016,151.727,113.923Z"/></svg>