<svg id="ba64468c-48b3-4fca-867c-550039a5221c" data-name="Layer 1" xmlns="http://www.w3.org/2000/svg" preserveAspectRatio="xMaxYMax meet" viewBox="0 0 400 400"><style type="text/css">.logoclass{fill:#dde8e7}</style><path class="logoclass" d="M276.01,288.6c-7.928,2.29-17.462.76-23.944-7.906-.828-1.107-1.644-2.221-2.571-3.474l-16.549,9.591c3.04,5.687,6.79,10.364,11.951,13.652,13.126,8.36,27.216,9.423,41.635,4.272,10.118-3.614,16.2-11.067,17.376-21.972,1.057-9.822-1.211-18.656-9.026-25.261a54.886,54.886,0,0,0-10.115-6.7c-5.852-3.036-11.981-5.535-17.9-8.442a19.275,19.275,0,0,1-5.283-3.759c-2.606-2.688-2.941-6.1-1.623-9.491,1.271-3.272,3.921-4.919,7.4-5.349,5.623-.695,9.937,1.4,13.179,5.945.587.822,1.211,1.618,1.9,2.529l15.7-10.176c-4.684-7.925-10.838-13.489-19.836-15.335-2.181-.448-4.4-.737-6.594-1.1h-5.1c-1.487.241-2.975.479-4.462.724a27.583,27.583,0,0,0-17.533,44.22c4.035,5.317,9.544,8.7,15.487,11.454,4.561,2.11,9.178,4.1,13.74,6.208a45.63,45.63,0,0,1,4.624,2.515c3.617,2.21,5.592,5.418,5.111,9.71C283.072,284.928,280.038,287.436,276.01,288.6Z"/><path class="logoclass" d="M177.9,305.417a39.885,39.885,0,0,0,20.251,1.744c13.58-2.078,22.91-11.125,23.235-26.395.512-24.071.263-48.158.33-72.238,0-.47-.067-.94-.109-1.488H201.4c0,.7,0,1.247,0,1.788q-.044,21.017-.09,42.035c-.025,9.462.165,18.933-.182,28.383-.281,7.651-4.54,9.906-9.927,10.14-5.443.236-9.062-2.427-11.8-6.767-.76-1.206-1.529-2.406-2.329-3.664l-16.477,9.968A30.5,30.5,0,0,0,177.9,305.417Z"/><path class="logoclass" d="M329.5,76.127H70.5v259h259Zm-12,247H82.5v-235h235Z"/></svg>