<svg id="b50e26f2-6bf1-4ba2-93d6-44a8049f7911" data-name="Layer 1" xmlns="http://www.w3.org/2000/svg" preserveAspectRatio="xMaxYMax meet" viewBox="0 0 400 400"><style type="text/css">.logoclass{fill:#dde8e7}</style><path class="logoclass" d="M65.23,67.359q.075,133.705.044,267.411H334.77V65.275q-133.705,0-267.411-.044C65.615,65.229,65.229,65.615,65.23,67.359Zm15.1,9.513q60.078.109,120.156.052v-.03H319.947c3.444,0,3.446,0,3.446,3.311q0,119.577,0,239.154c0,3.333,0,3.336-3.421,3.336H80.59c-3.479,0-3.48,0-3.48-3.509q.013-119.577-.034-239.154C77.075,77.407,77.866,76.867,80.33,76.871Z"/><path class="logoclass" d="M150.6,224.646q0,12.474.018,24.947c.011,5.878.695,6.507,6.686,6.606,2.416.04,4.833.019,7.25.013,8.847-.021,9.2-.342,9.2-9.024q.018-47.335,0-94.671c0-.995-.067-1.992-.025-2.984.169-4.068-1.648-6.078-5.831-5.956-3.55.1-7.107-.042-10.66.008-5.972.084-6.613.7-6.624,6.646q-.023,12.367-.017,24.734T150.6,199.7Q150.6,212.173,150.6,224.646Z"/><path class="logoclass" d="M190.595,242.454c1.066,1.5,2.882,2.457,4.078,3.438,1.8,1.877,3.084,4.121,5,5.019,4.54,2.132,9.251,4.272,14.125,5.241,9.868,1.961,19.544-.1,28.97-3.137,5.244-1.692,5.552-2.333,5.552-7.829q0-47.8-.011-95.594a12.3,12.3,0,0,0-.1-3.742c-.3-.9-1.38-2.14-2.161-2.175-4.6-.2-9.219-.1-13.831-.1-1.53,0-2.123.562-2.1,2.3.084,7.016-.051,14.035-.1,21.053-.011,1.54,0,3.08,0,4.923-2.971,0-5.566-.029-8.16.006-6.739.089-13.2,1.606-18.759,5.367-2.863,1.938-6.851,3.118-7.675,7.343-5.334,2.35-7.137,7.471-9.085,12.223-3.658,8.923-4.258,18.3-2.649,27.763C184.769,230.962,186.784,237.108,190.595,242.454ZM203.3,200.322c3.954-10.692,13.372-14.992,24.288-13.664,1.826.222,2.514,1.281,2.483,3.258-.124,7.958-.052,15.919-.052,23.879h-.014c0,7.75-.094,15.5.052,23.25.05,2.643-.949,3.691-3.473,4.085-14.135,2.206-22.549-6.021-24.647-17.281C200.463,215.942,200.455,208.015,203.3,200.322Z"/></svg>