<svg id="abf15658-6e9a-4db4-a62d-f23be74e8965" data-name="Layer 1" xmlns="http://www.w3.org/2000/svg" preserveAspectRatio="xMaxYMax meet" viewBox="0 0 400 400"><style type="text/css">.logoclass{fill:#dde8e7}</style><path class="logoclass" d="M263.183,240.7q0-50.99,0-101.98c0-1.333.012-2.666-.006-4a10.122,10.122,0,0,0-7.764-9.544c-.4-.09-.8-.186-1.2-.28h-25.1a.913.913,0,0,1-.247.112,10.235,10.235,0,0,0-8.745,10.542c.094,9.377.025,18.755.025,28.132,0,.961,0,.963-.987.963q-16.066,0-32.132.007a9.836,9.836,0,0,0-9.884,9.906q-.006,16.031,0,32.063c0,1.057,0,1.058-1.042,1.059q-14.307,0-28.615.016a10.341,10.341,0,0,0-2.185.225,9.767,9.767,0,0,0-7.853,9.751q-.042,11.618,0,23.237a9.509,9.509,0,0,0,.468,2.769,9.979,9.979,0,0,0,9.779,6.976q36.579.019,73.158.029,15.79,0,31.58-.009a16.509,16.509,0,0,0,2.127-.125A10.046,10.046,0,0,0,263.183,240.7Z"/><path class="logoclass" d="M98.395,288.36c-1.47.03-2.941.01-4.411.01-2.458,0-4.917.019-7.375-.013-.641-.008-.845.2-.808.829a19.579,19.579,0,0,1,0,2.411c-.041.645.2.823.82.817,2.642-.028,5.284,0,7.927-.018.561,0,.714.175.611.736a7.732,7.732,0,0,1-3.66,5.508,10.167,10.167,0,0,1-10.509.345,9.922,9.922,0,0,1-5.5-9.149,10.352,10.352,0,0,1,15.182-9.428,25.889,25.889,0,0,1,2.253,1.494l2.716-2.8c-.286-.25-.615-.569-.975-.849a14.674,14.674,0,0,0-23.157,8.2c-.167.71-.285,1.431-.427,2.146V290.8c.161.806.286,1.622.488,2.418A14.879,14.879,0,0,0,86.714,304.2c7.336-.341,13.561-5.917,12.559-15.1C99.208,288.5,98.956,288.348,98.395,288.36Z"/><path class="logoclass" d="M159.459,286.549c-.081-.167-.248-.411-.385-.415-1.143-.033-2.288-.019-3.483-.019l-.121,1.42c-.177-.14-.283-.217-.38-.3a6.724,6.724,0,0,0-5.842-1.589,9.4,9.4,0,0,0-2.358,17.719c2.946,1.327,5.8,1.289,8.336-1.015a1.671,1.671,0,0,1,.375-.143,19.8,19.8,0,0,1-.295,3.029,5.242,5.242,0,0,1-1.1,2.174,4.966,4.966,0,0,1-7.781-.895c-.195-.3-.374-.613-.582-.954l-3.483,1.457a2.443,2.443,0,0,0,.072.328c.063.148.131.294.208.435a8.866,8.866,0,0,0,6.177,4.646c.2.042.391.109.586.165h2.482a5.277,5.277,0,0,1,.517-.147,7.737,7.737,0,0,0,6.622-6.091,14.746,14.746,0,0,0,.427-3.473c.044-5.284.019-10.569.019-15.853A1.188,1.188,0,0,0,159.459,286.549Zm-5.346,12.635a4.861,4.861,0,0,1-7.27-.738,6.113,6.113,0,0,1,.236-7.426,4.8,4.8,0,0,1,8.223,1.321,17.286,17.286,0,0,1,.631,2.514A6.207,6.207,0,0,1,154.113,299.183Z"/><path class="logoclass" d="M324.51,293.632c-.56-.124-1.122-.246-1.676-.4a17.8,17.8,0,0,1-2.76-.829,1.675,1.675,0,0,1-.236-3.008,4.914,4.914,0,0,1,6,.7c.214.26.392.549.608.854l2.822-1.185c-.3-.507-.507-.943-.788-1.324a6.818,6.818,0,0,0-5.57-2.69,7.537,7.537,0,0,0-6.085,2.214,4.231,4.231,0,0,0,.074,5.913,7.15,7.15,0,0,0,3.471,1.876c1.136.285,2.283.528,3.411.841a4.887,4.887,0,0,1,1.441.625,1.923,1.923,0,0,1,.01,3.29,5.037,5.037,0,0,1-2.246.733,4.7,4.7,0,0,1-4.7-2.641c-.109-.2-.43-.471-.555-.428-.879.3-1.731.684-2.606,1.044a4.881,4.881,0,0,0,.176.5,7.688,7.688,0,0,0,7.6,4.472c3.161-.09,5.611-1.292,6.6-4.561v-1.655C328.849,295.367,326.961,294.176,324.51,293.632Z"/><path class="logoclass" d="M206.206,278.989a.873.873,0,0,0-1-.7,14.794,14.794,0,0,1-2.134,0c-.64-.051-.918.2-1.14.792q-4.417,11.805-8.882,23.593c-.1.274-.191.554-.327.951,1.075,0,2.015-.024,2.953.01a.779.779,0,0,0,.9-.616c.633-1.846,1.327-3.671,1.962-5.515a.888.888,0,0,1,1-.7q4.548.039,9.1,0a.922.922,0,0,1,1.048.726c.618,1.851,1.28,3.687,1.958,5.517.085.229.356.539.555.55,1.051.055,2.106.026,3.25.026-.1-.315-.173-.552-.259-.782q-1.225-3.256-2.454-6.509Q209.462,287.662,206.206,278.989Zm-6.262,14.673,4.048-11.189.191,0,4.049,11.19Z"/><path class="logoclass" d="M119.483,294.892a9.378,9.378,0,1,0-9.388,9.305A9.18,9.18,0,0,0,119.483,294.892Zm-13.91,2.814a5.826,5.826,0,0,1,.239-6.1,5.048,5.048,0,0,1,6.033-2.053,5.606,5.606,0,0,1,3.419,6.306c-.493,2.787-2.544,4.615-5.811,4.611A4.756,4.756,0,0,1,105.572,297.707Z"/><path class="logoclass" d="M130.561,285.538a9.33,9.33,0,1,0,9.332,9.356A9.182,9.182,0,0,0,130.561,285.538Zm5.123,10.267a5.233,5.233,0,0,1-5.2,4.667,5.446,5.446,0,0,1-5.117-6.646,5.194,5.194,0,0,1,6.833-4.289A5.593,5.593,0,0,1,135.684,295.8Z"/><path class="logoclass" d="M185.566,292.552c-.264-.653-.473-1.235-.729-1.795-2.085-4.562-6.91-6.491-11.3-4.459a8.807,8.807,0,0,0-5.16,7.522,9.281,9.281,0,0,0,5.566,9.681,9.429,9.429,0,0,0,11.047-2.884c.133-.172.235-.368.376-.593l-3.133-2.086c-2.555,3.824-7.759,3.005-9.064-.25,2.086-.865,4.138-1.718,6.191-2.568ZM172.5,294.519a5.072,5.072,0,0,1,3.838-5.238c1.711-.426,3.949.5,4.283,1.865Z"/><path class="logoclass" d="M248.247,303.633a13.072,13.072,0,0,1,1.722,0c.561.041.762-.142.757-.727-.024-3.308.035-6.617-.026-9.924a6.68,6.68,0,0,0-4.241-6.582,8.959,8.959,0,0,0-5.942-.336,6.754,6.754,0,0,0-4.3,3.306c-.135.242-.383.542.066.74.857.376,1.72.741,2.564,1.1,1.935-2.5,4.43-3.142,6.736-1.817,1.153.663,2.343,2.468,1.819,3.863-.212-.081-.421-.17-.636-.241-3.06-1.022-6.074-1.061-8.894.677a5.577,5.577,0,0,0-.962,8.7,7.193,7.193,0,0,0,10.075-.517c.14-.169.291-.328.437-.492l.158.038c0,.516.028,1.034-.008,1.548S247.744,303.663,248.247,303.633Zm-.736-6.794a5.636,5.636,0,0,1-5.25,4.441,12.621,12.621,0,0,1-1.844-.484,2.6,2.6,0,0,1-.842-4.395,4.355,4.355,0,0,1,2.56-1.221,8.113,8.113,0,0,1,4.891.677A.776.776,0,0,1,247.511,296.839Z"/><path class="logoclass" d="M230.2,303.635a12.309,12.309,0,0,1,1.79,0c.551.038.71-.172.7-.708-.024-2.2.005-4.41-.014-6.615-.014-1.606.015-3.22-.136-4.816a6.043,6.043,0,0,0-2.817-4.82,6.923,6.923,0,0,0-8.673,1.347c-.157.182-.315.363-.6.694,0-.749-.013-1.313,0-1.877.012-.381-.143-.545-.523-.539a17.277,17.277,0,0,1-1.791-.011c-.687-.06-.844.229-.842.871.022,5.214.012,10.429.015,15.644,0,.247.033.494.056.82.848,0,1.649-.035,2.445.011.6.035.795-.151.789-.768-.029-2.917-.019-5.835-.01-8.752a5.746,5.746,0,0,1,1.373-3.878,4.274,4.274,0,0,1,4.7-1.288,3.54,3.54,0,0,1,2.611,3.284,11.911,11.911,0,0,1,.115,1.577c.011,3.009.024,6.019-.01,9.028C229.37,303.49,229.581,303.683,230.2,303.635Z"/><path class="logoclass" d="M262.627,310.492c-.1.217-.18.444-.324.8.927,0,1.726-.037,2.519.012a1.045,1.045,0,0,0,1.183-.758q4.182-9.713,8.422-19.4c.676-1.554,1.346-3.11,2.1-4.845-1.075,0-1.966.031-2.853-.011a.9.9,0,0,0-1.007.692c-1.448,3.65-2.929,7.287-4.4,10.928-.089.22-.193.434-.357.8-.193-.445-.322-.732-.443-1.023q-2.217-5.346-4.441-10.689c-.105-.252-.323-.635-.506-.646-1.065-.062-2.136-.03-3.312-.03.136.344.219.574.317.8q3.244,7.38,6.5,14.754a1.429,1.429,0,0,1-.008,1.3C264.869,305.608,263.751,308.051,262.627,310.492Z"/><path class="logoclass" d="M310.4,298.528a5.222,5.222,0,0,1-8.151,1.25,6.84,6.84,0,0,1-.116-9.51,5.06,5.06,0,0,1,8.118,1.19c.086.158.185.309.314.522l2.94-1.224c-.135-.3-.219-.515-.322-.716a8.508,8.508,0,0,0-12.759-2.483c-3.169,2.54-4.03,5.979-3.15,9.792,1.727,7.488,10.183,8.418,14.127,4.937a7.9,7.9,0,0,0,2.2-3.094l-2.882-1.224C310.586,298.213,310.495,298.37,310.4,298.528Z"/><path class="logoclass" d="M166.382,277.017c0-.607-.135-.878-.8-.828-.708.054-1.423.008-2.134.013-1.324.009-1.2-.132-1.2,1.165q-.006,6.268,0,12.536c0,4.317.01,8.633-.012,12.95,0,.593.148.821.77.785a21.773,21.773,0,0,1,2.616,0c.637.04.776-.212.755-.792-.039-1.1-.011-2.2-.011-3.306Q166.371,288.279,166.382,277.017Z"/><path class="logoclass" d="M278.262,289.314c.454-.05.922.029,1.376-.018.687-.071.846.229.844.871-.008,2.939-.02,5.881.067,8.818a4.66,4.66,0,0,0,4.34,4.852,6.454,6.454,0,0,0,3.828-.41l-1.106-2.742c-.336.076-.556.141-.781.174-1.9.284-2.969-.5-3-2.341-.048-2.871-.01-5.743-.021-8.615,0-.445.172-.612.614-.6,1.01.017,2.022-.007,3.032.008.409.006.585-.143.572-.562-.02-.6-.034-1.2.005-1.791.035-.539-.21-.671-.692-.659-.9.022-1.794-.031-2.687.017-.68.037-.872-.232-.852-.878.039-1.262.015-2.527.007-3.79,0-.286.062-.635-.409-.633-.938,0-1.876,0-2.869,0-.023.334-.057.6-.059.873-.006,1.194-.027,2.39.007,3.583.018.611-.163.894-.815.841-.548-.044-1.1.005-1.653-.01-.406-.011-.59.147-.577.565a13.62,13.62,0,0,1-.007,1.584C277.372,289.091,277.571,289.39,278.262,289.314Z"/><path class="logoclass" d="M256.778,278.3a12.73,12.73,0,0,1-1.79,0c-.647-.052-.811.207-.807.827.025,3.95.013,7.9.013,11.849,0,3.973.009,7.945-.01,11.918,0,.56.15.794.735.747.548-.043,1.1-.009,1.653-.009.9,0,.9,0,.9-.906q0-10.127,0-20.254c0-1.148-.018-2.3.008-3.444C257.492,278.5,257.335,278.26,256.778,278.3Z"/><path class="logoclass" d="M294.326,287.147c0-.138.045-.305-.017-.407-.1-.166-.267-.4-.414-.41-.913-.038-1.828-.019-2.86-.019v6.729c0,3.286.013,6.573-.012,9.859,0,.572.164.78.739.736a10.371,10.371,0,0,1,1.722,0c.662.06.859-.168.856-.839C294.315,297.58,294.326,292.364,294.326,287.147Z"/><path class="logoclass" d="M292.62,278.044a2.316,2.316,0,0,0-2.271,2.307,2.313,2.313,0,1,0,2.271-2.307Z"/></svg>