<svg id="d6b639db-47ce-4383-9cb7-564e06a859af" data-name="Layer 1" xmlns="http://www.w3.org/2000/svg" preserveAspectRatio="xMaxYMax meet" viewBox="0 0 400 400"><style type="text/css">.logoclass{fill:#dde8e7}</style><path class="logoclass" d="M90.1,244.5c.007,9.785,3.74,17.082,12.717,22.135,28.532,16.058,56.825,32.542,85.172,48.926,7.856,4.541,15.683,4.8,23.543.285q44.058-25.3,88.052-50.7c6.818-3.947,10.313-10.094,10.33-18.036.037-17.064.011-34.127.011-51.191,0-16.813-.068-33.626.028-50.438.049-8.658-3.9-14.851-11.2-19.062q-43.521-25.1-87.073-50.142c-7.634-4.409-15.173-4.595-22.824-.189q-43.863,25.258-87.73,50.51c-7.123,4.1-10.613,10.435-11,18.534-.133,2.754-.035,5.52-.035,8.28Q90.086,198.951,90.1,244.5Zm192.893-52.4c3.407.333,4.891-1.052,4.427-4.528-.426-3.188,1.354-3.991,3.964-3.477,2.874-.46,4.311.572,3.935,3.447-.446,3.4.927,4.958,4.4,4.536,3.029-.368,3.874,1.129,3.853,3.979-.02,2.745-.961,4.024-3.736,3.729-3.293-.35-5.056.824-4.513,4.411.488,3.226-1.366,3.712-4.044,3.7-2.536-.009-4.267-.489-3.863-3.5.445-3.315-.745-5.013-4.3-4.635-2.956.314-3.541-1.436-3.528-3.963C279.592,193.373,280.284,191.834,282.989,192.1Zm-18.326-4.31c-.364,3.276,1.084,4.66,4.334,4.293,2.9-.327,3.965.969,3.975,3.905.01,3.056-1.319,4.094-4.1,3.792-3.377-.368-4.539,1.3-4.211,4.426.292,2.787-1.016,3.714-3.744,3.7-2.645-.013-4.156-.748-3.8-3.619.437-3.48-1.152-4.842-4.506-4.5-2.777.281-3.752-1.007-3.687-3.752.06-2.488.452-4.3,3.471-3.949,3.556.412,5.155-1.022,4.72-4.669-.313-2.623.986-3.721,3.609-3.341C263.614,183.587,264.994,184.807,264.663,187.789Zm-81.386-62.623c30.722-7.006,60.181,4.9,77.9,30.715,1.833,2.672,1.516,3.935-1.247,5.469q-12.5,6.942-24.766,14.294c-2.612,1.564-4.018,1.125-5.819-1.288-9.664-12.953-26.712-18.135-41.279-12.772-15.944,5.871-25.38,20.234-24.393,37.131a35.825,35.825,0,0,0,28.124,32.775c15.234,3.266,28.035-1.477,37.648-13.839,2.017-2.593,3.457-2.812,6.123-1.214,7.958,4.772,15.98,9.449,24.13,13.884,3.14,1.709,2.971,3.212,1.15,5.793q-22.3,31.628-60.884,32.288c-33.07.87-65.687-24.007-71.884-59.911A72.408,72.408,0,0,1,183.277,125.167Z"/></svg>