<svg id="a76eeea9-f55a-44cb-9fc0-6099763b2261" data-name="Layer 1" xmlns="http://www.w3.org/2000/svg" preserveAspectRatio="xMaxYMax meet" viewBox="0 0 400 400"><style type="text/css">.logoclass{fill:#dde8e7}</style><path class="logoclass" d="M143.15,218.356H143.1v-84.1a4.169,4.169,0,0,0-1.27-.07q-17.374-.006-34.748,0c-.666,0-1.506-.29-1.956.149-.493.48-.177,1.346-.185,2.04-.034,3.072-.037,6.144-.051,9.216.025.607.073,1.214.073,1.821q.005,66.257,0,132.514c0,1.437-.1,1.3,1.319,1.3q17.692,0,35.384,0c1.65,0,1.471.178,1.471-1.45Q143.15,249.067,143.15,218.356Z"/><path class="logoclass" d="M145.482,137.551v67.821q13.439,19.74,26.879,39.481l23.158-33.863Q170.5,174.269,145.482,137.551Z"/><path class="logoclass" d="M216.55,184.419q-8.2,12.065-16.4,24.129c-1.045,1.532-2.013,3.12-3.175,4.572l-.015-.021-23.145,33.844a1.63,1.63,0,0,0,.146.143,19.231,19.231,0,0,0,1.7,2.616q9.333,13.721,18.675,27.436a30.914,30.914,0,0,1,2.363,3.638.66.66,0,0,0,.591.1,4.064,4.064,0,0,1,.725-1.206q11.6-16.987,23.2-33.967,13.036-19.072,26.079-38.139c.348-.509.7-1.013,1.051-1.52V137.664q-5.476,8.045-10.948,16.093Q226.975,169.088,216.55,184.419Z"/><path class="logoclass" d="M289.008,145.6c-.017-.37-.048-.74-.049-1.109q-.006-4.556,0-9.112,0-.4-.008-.81a.348.348,0,0,0-.368-.386c-.2-.009-.4-.012-.607-.012q-18.173,0-36.346,0a1.271,1.271,0,0,0-.9.158v69.258c.012.238.022.475.022.713q0,37.814,0,75.627c0,1.35-.144,1.241,1.261,1.241q17.741,0,35.482,0c1.719,0,1.451.159,1.451-1.452q.008-66.2.006-132.4C288.953,146.743,288.989,146.169,289.008,145.6Z"/></svg>