<svg id="b2d468c8-0c0b-4c38-a5a8-78360f2842a5" data-name="Layer 1" xmlns="http://www.w3.org/2000/svg" preserveAspectRatio="xMaxYMax meet" viewBox="0 0 400 400"><style type="text/css">.logoclass{fill:#dde8e7}</style><path class="logoclass" d="M208.49,250.045c6.555,3.705,13.053,7.512,19.579,11.268,1.772,1.019,3.57,1.992,5.356,2.986h1.413c.314-.153.639-.288.942-.463q12.256-7.074,24.512-14.146a3.36,3.36,0,0,0,1.831-3.165q-.012-35.564,0-71.129a3.312,3.312,0,0,0-1.839-3.157c-4.958-2.746-9.9-5.524-14.846-8.29h-.989a1.863,1.863,0,0,0-1.036,1.9q.027,18.582.012,37.163a5.6,5.6,0,0,1-.016.776,1.023,1.023,0,0,1-1.512.823c-.192-.089-.374-.2-.557-.3-1.774-1.023-3.561-2.022-5.315-3.078a3.479,3.479,0,0,0-3.849.007q-12.06,7-24.153,13.938A3.489,3.489,0,0,0,206.1,218.5c.025,9.138.054,18.276-.02,27.413A4.205,4.205,0,0,0,208.49,250.045Zm16.232-22.209a1.208,1.208,0,0,1,.7-1.126q4.017-2.291,8.009-4.625a1.1,1.1,0,0,1,1.245,0q3.993,2.332,8.007,4.627a1.142,1.142,0,0,1,.645,1.136c-.025,1.531-.009,3.062-.009,4.593s-.02,3.062.01,4.592a1.2,1.2,0,0,1-.691,1.189q-3.988,2.271-7.952,4.582a1.094,1.094,0,0,1-1.239.016q-4.025-2.347-8.075-4.651a1.152,1.152,0,0,1-.65-1.08Q224.722,232.464,224.723,227.836Z"/><path class="logoclass" d="M107.025,228.539c-.026,5.747.007,11.5-.023,17.242a3.355,3.355,0,0,0,1.877,3.208c2.364,1.319,4.7,2.684,7.051,4.029,2.41,1.38,4.827,2.748,7.227,4.144a1.578,1.578,0,0,0,2.486-1.427c-.081-1.928-.007-3.862,0-5.793q.043-12.717.085-25.434c.007-2.285,0-4.57,0-6.855a3.425,3.425,0,0,0-1.867-3.228q-12.137-6.939-24.237-13.943a3.506,3.506,0,0,0-3.843.009q-11.976,6.936-23.991,13.8a4.157,4.157,0,0,0-2.033,2.231v39.716a1.663,1.663,0,0,0,1.143,1.151,2.023,2.023,0,0,0,1.482-.294q7.1-4.089,14.214-8.142a3.4,3.4,0,0,0,1.852-3.23c-.015-5.795.006-11.589-.015-17.384a3.153,3.153,0,0,1,1.726-3Q93.082,223.7,95.973,222a3.162,3.162,0,0,1,3.464-.007c1.887,1.109,3.777,2.215,5.693,3.272A3.4,3.4,0,0,1,107.025,228.539Z"/><path class="logoclass" d="M328.565,214.883q-12.222-7.073-24.427-14.175a3.133,3.133,0,0,0-3.349,0q-12.258,7.08-24.521,14.153a3.234,3.234,0,0,0-1.778,3.042q.025,14.167,0,28.335a3.222,3.222,0,0,0,1.785,3.04q12.124,6.889,24.23,13.808a3.367,3.367,0,0,0,3.6.008c3.154-1.783,6.333-3.522,9.5-5.282,1.687-.937,3.369-1.884,5.058-2.816a1.538,1.538,0,0,0,.884-1.551,1.757,1.757,0,0,0-1.11-1.428q-12.129-6.951-24.26-13.9a2.176,2.176,0,0,1-1.237-2.159c.051-2.684.034-5.37.007-8.055A1.873,1.873,0,0,1,294,226.076q3.63-2.043,7.218-4.16a1.813,1.813,0,0,1,2.039-.012c2.352,1.386,4.711,2.761,7.1,4.083a2.107,2.107,0,0,1,1.208,2.1c-.043,2.142-.018,4.286-.011,6.43a1.523,1.523,0,0,0,1.193,1.613,1.864,1.864,0,0,0,1.46-.368q7.082-4.115,14.167-8.223a3.844,3.844,0,0,0,1.869-2.111V216.81A3.921,3.921,0,0,0,328.565,214.883Z"/><path class="logoclass" d="M139.721,249.1q12.227,7.063,24.459,14.118a3.2,3.2,0,0,0,3.464.008q12.128-7.026,24.282-14.006a3.27,3.27,0,0,0,1.81-3.093q-.031-14.027,0-28.055a3.335,3.335,0,0,0-1.828-3.165c-3.582-2.033-7.141-4.106-10.709-6.165q-6.819-3.936-13.636-7.876a3.354,3.354,0,0,0-1.675-.47,3.8,3.8,0,0,0-1.978.66q-7.154,4.132-14.311,8.258-4.833,2.787-9.67,5.565a3.307,3.307,0,0,0-1.818,3.166c.049,4.664.018,9.328.018,13.992h0c0,4.758.011,9.516-.007,14.275A2.986,2.986,0,0,0,139.721,249.1Z"/><path class="logoclass" d="M297.589,235.368q2.119,1.2,4.218,2.434a1.047,1.047,0,0,0,1.183-.011q2.1-1.24,4.216-2.438a.988.988,0,0,0,.573-.958q-.022-2.471,0-4.943a.961.961,0,0,0-.52-.924q-2.174-1.245-4.342-2.5a.962.962,0,0,0-1.06.009q-2.165,1.262-4.343,2.5a.919.919,0,0,0-.5.925c.019.8.006,1.6.006,2.4,0,.824.019,1.648-.007,2.471A1.033,1.033,0,0,0,297.589,235.368Z"/></svg>