<svg id="3911ba25-267c-4a5d-9b38-c1d78f5e29cd" data-name="Layer 1" xmlns="http://www.w3.org/2000/svg" preserveAspectRatio="xMaxYMax meet" viewBox="0 0 400 400"><style type="text/css">.logoclass{fill:#dde8e7}</style><path class="logoclass" d="M158.146,287.3c-.689.015-1.378.005-2.067.005H128.123v6.278H161.2c1.307-.357,2.616-.708,3.92-1.074,6.094-1.71,8.412-4.763,8.414-11.079q0-14.7.005-29.4V249.28h-9.075c-.048,1.039-.125,1.938-.126,2.836-.011,6.431-.082,12.863.036,19.291.04,2.146-.513,3.017-2.8,2.905-3.59-.175-7.194-.011-10.792-.056-3.133-.039-6.28-.013-9.394-.3-3.024-.282-4.129-1.7-4.138-4.7-.017-5.818,0-11.636-.01-17.455,0-.817-.068-1.634-.106-2.484H128.07c0,6.729.146,13.3-.055,19.869a7.968,7.968,0,0,0,4.859,8.076,16.491,16.491,0,0,0,6.063,1.911c7.328.358,14.673.374,22.012.514.973.018,1.947,0,2.865,0C164.866,285.187,163.3,287.2,158.146,287.3Z"/><path class="logoclass" d="M82.245,279.941c4.942,1.416,10.459,1.078,13.223-5.518,4.193-10,8.8-19.829,13.246-29.728.327-.728.709-1.43,1.066-2.145l.452.1v37.4c2.506,0,4.785-.114,7.047.035,1.958.129,2.443-.629,2.431-2.5-.075-11.48-.028-22.961-.054-34.441a8.893,8.893,0,0,0-.408-3.388,7.08,7.08,0,0,0-2.32-3.2c-6.42-4.018-13.537-1.823-16.587,5-4.085,9.135-8.129,18.288-12.2,27.43-.584,1.31-1.218,2.6-2.03,4.324-.564-1.21-.956-2-1.306-2.81-4.275-9.885-8.525-19.782-12.824-29.657-1.939-4.455-4.644-6.145-9.523-5.977a19.3,19.3,0,0,0-4.066.591c-3.813.97-5.254,2.457-5.3,6.41-.139,12.167-.085,24.337-.035,36.506,0,.551.68,1.554,1.084,1.576,2.65.143,5.312.074,8.317.074v-37.39a4.6,4.6,0,0,1,1.462,1.98q6.753,15.058,13.494,30.121C78.441,277.023,79.677,279.2,82.245,279.941Z"/><path class="logoclass" d="M270.752,237.309a45.772,45.772,0,0,0-11.038-1.353,160.56,160.56,0,0,0-18.98.5c-7.2.746-10.072,4.479-10.076,11.642,0,6.882-.016,13.763.007,20.645.018,5.464,2.1,8.164,7.3,10,6.109,2.159,12.485,1.741,18.612,1.1,5-.525,8.536.627,11.692,4.2.838.949,1.924,2.205,3,2.317,3.037.316,6.128.11,9.8.11l-9.121-8.382c5.155-2.041,6-5.815,5.891-10.293-.166-6.954-.021-13.915-.055-20.873C277.765,241.658,275.859,238.675,270.752,237.309Zm-1.236,31.066a5.445,5.445,0,0,1-.6,2.646c-1.111,1.869-2.219,3.034-3.958.8-3.42-4.39-7.9-5.6-13.162-4.844a21.586,21.586,0,0,1-2.31.01l6.852,6.459-.3.537c-3.509,0-7.03.175-10.524-.051-3.227-.209-5.033-2.434-5.044-5.706q-.035-10.328,0-20.657c0-3.17,1.464-5.342,4.6-5.479,6.548-.286,13.123-.264,19.676-.036,2.96.1,4.717,2.21,4.764,5.205C269.619,254.3,269.562,261.337,269.516,268.375Z"/><path class="logoclass" d="M303.019,192.119c-2.628-4.738-4.889-9.684-7.186-14.6-3.059-6.546-5.529-13.419-9.116-19.655-8.2-14.256-19.94-25.1-34.022-33.537a42.154,42.154,0,0,0-19.37-5.9,11.6,11.6,0,0,1-5.677-2.16,40.106,40.106,0,0,0-15.458-7.186c-3.279-.661-6.512-.327-8.757,2.6a8.236,8.236,0,0,0-.635,9.369,45.809,45.809,0,0,0,4.32,6.514c3.455,4.477,6.417,9.083,8.054,14.665,2.142,7.3,4.616,14.584,9.918,20.448a3.568,3.568,0,0,1,.325,2.694c-1.1,5.3-2.865,10.519-3.38,15.865-.875,9.091.563,17.883,6.28,25.448,1.9,2.521,4.292,4.383,7.749,3.383,3.348-.969,3.646-3.937,4.128-6.724.434-2.511.833-5.027,1.248-7.541,2.16,2.633,3.369,5.5,5.075,8.034a52.79,52.79,0,0,0,5.988,7.15c2.082,2.145,4.453,4.009,5.672,5.089L241.031,185c-6.107,5.017-5.4,13.057-7.32,20.636-1.683-1.228-3.622-2.476-4.189-4.181a80.77,80.77,0,0,1-3.682-14.481c-.892-6.581.656-12.976,3.117-19.139.976-2.445,1.945-5.118-.3-7.351-4.519-4.5-6.849-10.111-8.477-16.072a52.028,52.028,0,0,0-10.717-20.372,15.868,15.868,0,0,1-2.986-4.839c-.474-1.351-.659-3.611.112-4.384a5.016,5.016,0,0,1,4.521-.834c4.754,2.067,9.28,4.653,13.939,6.946a22.652,22.652,0,0,0,5.428,2.084c3.335.663,6.987.323,10.082,1.51,20.754,7.96,35.28,22.63,44.668,42.573,4.32,9.177,8.449,18.444,12.745,27.633,1.211,2.591,2.856,4.962,5.907,5.625,10.121,2.2,18.269,8.131,26.48,13.936a37.4,37.4,0,0,1,3.455,3.291c-8.691.233-16.351.666-23.291,4.6,1.527,4.324,3.859,7.768,7.42,10.013,8.413,5.307,16.987,10.356,25.4,15.451a5.931,5.931,0,0,0-.535-1.09c-.407-.568-.915-1.061-1.361-1.6a64.874,64.874,0,0,0-18.309-15.515c-1.844-1.039-3.217-2.912-4.807-4.4l.5-.9,21.06-4.278c-2.254-2.609-3.749-4.793-5.674-6.488-8.04-7.074-16.643-13.277-26.767-17.184A9.538,9.538,0,0,1,303.019,192.119Z"/><path class="logoclass" d="M198.041,241.537c.689-.006,1.378,0,2.066,0,7.041,0,14.083-.082,21.121.048,2.2.041,2.863-.6,2.884-2.823.022-2.326-.645-3.053-2.989-2.956-4.431.184-8.875.053-13.314.053v.036c-4.668,0-9.36-.3-14,.066-8.214.653-13.032,4.051-12.229,12.276a12.239,12.239,0,0,1,0,2.065,6.738,6.738,0,0,0,4.273,7.189,40.166,40.166,0,0,0,10.282,2.729c4,.465,8.109-.045,12.153.182,3.808.214,6.938,1.012,6.375,6.552a13.117,13.117,0,0,0-.005,2.065,3.988,3.988,0,0,1-2.866,4.224,12.893,12.893,0,0,1-4.238.743c-7.958.069-15.919.1-23.876-.011-2.1-.029-2.22,1.034-2.113,2.564.1,1.486-.612,3.3,2.14,3.261,9.1-.126,18.223.147,27.313-.258,3.051-.136,6.157-1.576,9.005-2.914a6.461,6.461,0,0,0,3.639-6.2c-.007-2.142-.013-4.286.035-6.427a6.031,6.031,0,0,0-3.176-5.706,14.9,14.9,0,0,0-4.755-2.166c-3.6-.568-7.257-.746-10.9-.976-3.5-.221-7.043-.077-10.5-.571a5.07,5.07,0,0,1-3.293-2.731C188.47,245.413,191.144,241.6,198.041,241.537Z"/><path class="logoclass" d="M293.742,242.683c0-6.963,0-6.917-7.011-6.859-1.651.014-2.284.441-2.271,2.2.072,10.181,0,20.364.053,30.545.024,4.51,2.091,7.839,6.436,9.31a27.222,27.222,0,0,0,7.768,1.692c8.568.243,17.147.053,25.717.246,2.8.063,2.281-1.586,2.428-3.25.18-2.027-.537-2.628-2.571-2.6-7.654.112-15.311.065-22.966.024a17.388,17.388,0,0,1-3.846-.455c-2.749-.645-3.708-1.882-3.723-4.676-.026-5.052-.007-10.105-.011-15.158Q293.741,248.2,293.742,242.683Z"/><path class="logoclass" d="M338.608,266.683a7.066,7.066,0,0,0-6.787,6.74,6.728,6.728,0,0,0,6.821,6.805,6.36,6.36,0,0,0,6.74-6.717A6.72,6.72,0,0,0,338.608,266.683Zm-.037,12.824a5.955,5.955,0,0,1-5.723-5.966,5.8,5.8,0,0,1,5.975-5.865,5.88,5.88,0,0,1,5.751,5.89A6.023,6.023,0,0,1,338.571,279.508Z"/><path class="logoclass" d="M230.832,133.557l4.954,7.9c1.9-1.987,2.063-4.063.687-6.086C235.179,133.473,233.422,132.29,230.832,133.557Z"/><path class="logoclass" d="M340.939,273.235c.289-.715.687-2.045.452-2.194a8,8,0,0,0-3.172-1.124c-.576-.076-1.752.465-1.78.8-.169,2.022-.084,4.065-.084,6.1.53-.371.49-.758.6-1.1.21-.651.506-1.274.766-1.909a10.033,10.033,0,0,1,1.7,1.274,17.653,17.653,0,0,1,1.441,2.171l.406-.24-1.522-2.909C340.241,273.765,340.8,273.584,340.939,273.235Zm-2.267.566c-.763-.89-1.531-1.4-1.6-2-.049-.4.991-1.374,1.373-1.292a8.643,8.643,0,0,1,2.381,1.343Z"/></svg>