<svg id="dcd2e474-b7c8-458c-af20-25b414b84492" data-name="Layer 1" xmlns="http://www.w3.org/2000/svg" preserveAspectRatio="xMaxYMax meet" viewBox="0 0 400 400"><style type="text/css">.logoclass{fill:#dde8e7}</style><path class="logoclass" d="M118.656,252.571c1.842,16.908,1.522,16.967,16.32,25.192q29.9,16.617,59.817,33.191a32.1,32.1,0,0,1,3.784,2.889h2a32.574,32.574,0,0,1,3.792-2.882Q239.49,291.411,274.69,272c2.595-1.425,3.847-3.037,4.183-6.041,3.108-27.791,6.367-55.566,9.591-83.344,1.209-10.416,2.3-20.85,3.75-31.233.479-3.427-.355-5.031-3.69-6.2-28.562-10.022-57.05-20.253-85.618-30.258a10.8,10.8,0,0,0-6.64,0c-28.566,10.006-57.054,20.237-85.615,30.258-3.333,1.169-4.108,2.75-3.7,6.188C110.984,185.093,114.978,218.815,118.656,252.571ZM199.569,134.8l58.757,131.8c-7.54,0-13.99.185-20.411-.159-1.25-.067-2.887-1.977-3.5-3.4-3.145-7.327-6.139-14.726-8.913-22.2-1.045-2.815-2.571-3.726-5.516-3.7q-20.482.211-40.966-.007c-3.056-.036-4.393,1.133-5.4,3.851-2.663,7.161-5.769,14.16-8.374,21.341-1.225,3.375-3.107,4.56-6.642,4.387-5.571-.272-11.165-.072-17.783-.072Z"/><path class="logoclass" d="M199.563,179.014l-16.3,39.33h32.669Z"/></svg>