<svg id="20294740-32b0-448c-a0a0-e472d9e8ab25" data-name="Layer 1" xmlns="http://www.w3.org/2000/svg" preserveAspectRatio="xMaxYMax meet" viewBox="0 0 400 400"><style type="text/css">.logoclass{fill:#dde8e7}</style><path class="logoclass" d="M235.889,104.144a46.051,46.051,0,0,0-25.9,20.87c-5.839,11.018-6.711,22.479-3.146,34.368,1.346,4.49,3.735,8.483,5.77,12.647,4.223,6.852,9.137,13.231,13.625,19.9,11.162,14.958,19.276,31.233,21.613,50a15.537,15.537,0,0,1,.037,1.636c.412,1.511,1.7,2.128,2.894,2.85a5.815,5.815,0,0,0,2.855-4.9c1.114-12.687,5.782-24.17,11.959-35.12a143.476,143.476,0,0,1,10.932-16.771c.567-.849,1.111-1.714,1.7-2.544a165.518,165.518,0,0,0,12.15-18.724c6.662-12.619,8.374-25.607,2.717-39.041C283.964,107.627,258.792,96.569,235.889,104.144Zm14.291,57.119c-9.055-.1-15.287-6.73-15.756-15.422.433-8.615,6.679-15.5,16.189-15.421,9.317.076,15.973,6.39,16,15.054C266.655,155.287,259.75,161.373,250.18,161.263Z"/><path class="logoclass" d="M195.761,225.3c-.482-.482-1.015-.912-1.524-1.366Q162.59,255.6,130.947,287.267c-.575.576-1.109,1.194-1.662,1.792.546.024,1.092.069,1.638.069q63.306,0,126.613,0h1.942c-.667-.72-1.052-1.165-1.466-1.58Q226.89,256.422,195.761,225.3Z"/><path class="logoclass" d="M268.28,207.916c-6.949,12.319-10.627,23.083-11.574,33.877a8.889,8.889,0,0,1-3.8,6.929q11.42,11.436,22.848,22.863c.226.226.454.533.9.208v-.776q0-38.176,0-76.352A147.229,147.229,0,0,0,268.28,207.916Z"/><path class="logoclass" d="M224.039,194.136q-5.318,5.334-10.649,10.656a6.563,6.563,0,0,1-2.313,1.957c.5.556.973,1.137,1.5,1.665q15.967,15.981,31.948,31.948C242.21,224.729,235.494,209.582,224.039,194.136Z"/><path class="logoclass" d="M209.992,173.645l-.145-.263c-.5-1.027-1.043-2.076-1.565-3.089a58.61,58.61,0,0,1-4.388-10.026c-3.7-12.341-2.8-24.215,2.674-35.319q-39.434,0-78.869,0c-9.6,0-15.347,5.711-15.348,15.246q0,64.646,0,129.292c0,.819.057,1.637.087,2.456.553-.5,1.129-.98,1.656-1.508q48.125-48.112,96.244-96.229C210.226,174.016,210.107,173.831,209.992,173.645Zm-58.151,14.581c-16.624.36-25.565-14.958-23.954-26.225,2.618-18.314,22.79-27.159,37.65-16.381,1.347.977,1.964,1.682.311,3a47.832,47.832,0,0,0-4.1,4.024c-.672.685-1.15.725-2.012.077a13.942,13.942,0,0,0-15.966-.6,14.617,14.617,0,0,0-6.706,14.794,15.125,15.125,0,0,0,10.989,12.032c6.823,1.562,13.642-1.7,16.021-7.6.6-1.5.419-2.022-1.342-1.957-3.348.125-6.705.012-10.058.053-1.005.012-1.507-.231-1.478-1.365a51.8,51.8,0,0,0-.118-5.328c-.112-1.435.509-1.714,1.791-1.68,3.008.08,6.02.026,9.03.026,3.486-.026,6.974-.137,10.458.177,1.129.1,1.447.575,1.553,1.623C175.346,177.123,166.22,187.915,151.841,188.226Z"/></svg>