<svg id="05d3139f-3149-4bed-b099-1833ca8d0f19" data-name="Layer 1" xmlns="http://www.w3.org/2000/svg" preserveAspectRatio="xMaxYMax meet" viewBox="0 0 400 400"><style type="text/css">.logoclass{fill:#dde8e7}</style><path class="logoclass" d="M119.192,271.656c.308,2.635,1.8,3.572,3.718,4.623q34.631,19,69.227,38.055c1.479.814,3.13,1.4,4.194,2.834h3.422c9.2-6.24,19.242-11,28.889-16.452,14.872-8.405,29.86-16.6,44.858-24.784a7.352,7.352,0,0,0,4.154-6.317c3.217-27.549,6.6-55.078,9.941-82.613q1.336-11.012,2.7-22.021c.12-.963.034-2.031,1.013-2.68V151.178c-9.024-2.117-17.565-5.721-26.319-8.656-20.915-7.012-41.75-14.265-62.61-21.443-1.2-.412-2.32-1.034-3.478-1.558h-1.711c-12.016,4.327-24.013,8.71-36.053,12.967q-26.924,9.521-53.9,18.894c-.8.279-1.634.438-2.453.652v6.845c2.588,6.718,2.429,13.9,3.311,20.874Q113.9,225.672,119.192,271.656ZM118.027,158.3q39.029-13.821,78.024-27.737a8.608,8.608,0,0,1,2.05-.21c13.1,4.36,26.2,8.684,39.283,13.092,13.632,4.593,27.206,9.358,40.875,13.835,3.155,1.033,4.179,2.428,3.735,5.8-3.1,23.583-6.021,47.191-8.991,70.792-1.3,10.318-2.625,20.633-3.833,30.961-.211,1.8-.5,3.271-2.257,4.233q-34.47,18.869-68.906,37.8c-3.314-.607-5.872-2.77-8.7-4.329-18.954-10.427-37.816-21.023-56.823-31.351-3.351-1.821-4.92-4.028-5.333-7.786-2.827-25.752-5.824-51.485-8.765-77.224-.9-7.917-1.717-15.847-2.766-23.745C115.316,160.175,115.874,159.067,118.027,158.3Z"/><path class="logoclass" d="M144.432,264.436a106.473,106.473,0,0,1,13.65-.206c2.674.085,3.99-.875,4.933-3.394,2.837-7.58,5.976-15.046,8.935-22.581.709-1.805,1.312-3.231,3.79-3.159,7.392.214,14.791.169,22.187.226l.059-.352q-.029-8.368-.058-16.735h-17.12l16.529-39.751.809.438,19.092,38.935H198.078l-.149.379q.027,8.368.057,16.735c7.241.8,14.51.37,21.756.256,3.656-.057,5.61.932,6.971,4.506,2.834,7.439,6.2,14.676,9.378,21.981.658,1.512,1.037,3.206,3.407,3.154,5.95-.13,11.905-.043,17.834-.043.386-1.8-.7-2.931-1.276-4.164q-20.314-43.528-40.739-87c-5.7-12.074-10.835-24.421-17.265-36.147a2.124,2.124,0,0,1-.152-.693c-1.791,2.494-2.828,5.35-4.062,8.132q-11.586,26.1-23.346,52.129c-9.551,21.251-19.073,42.516-28.728,63.719C140.232,264.162,140.842,264.785,144.432,264.436Z"/></svg>