<svg id="2a757788-6fae-49b4-9b0c-f37d7562a17e" data-name="Layer 1" xmlns="http://www.w3.org/2000/svg" preserveAspectRatio="xMaxYMax meet" viewBox="0 0 400 400"><style type="text/css">.logoclass{fill:#dde8e7}</style><path class="logoclass" d="M91.833,204.9c-2.377-.922-4.914-1.428-7.373-2.142-3.354-.974-6.774-1.779-10.034-3a4.486,4.486,0,0,1-1.3-7.747,7.094,7.094,0,0,1,2.4-1.38,13.467,13.467,0,0,1,7.709-.115c3.435.841,5.2,2.94,5.618,6.452.022.184.063.365.1.584H99.54c-.056-5.16-1.681-9.6-6.093-12.259-8.409-5.069-17.2-5.352-25.817-.547-5.488,3.061-7.718,8.84-6.413,15.008.942,4.452,3.9,7.249,7.907,8.824,3.419,1.343,7.034,2.185,10.555,3.271,2.482.766,4.988,1.478,7.416,2.391a5.29,5.29,0,0,1,3.343,3.37,5.122,5.122,0,0,1-3.114,6.385,15.611,15.611,0,0,1-12.8-.027,7.661,7.661,0,0,1-4.589-5.938c-.112-.6-.142-1.22-.213-1.862H59.148c-.064,5.246,1.673,9.6,5.744,12.885a22.58,22.58,0,0,0,12.739,4.625c5.148.419,10.212.012,14.928-2.265,5.995-2.895,8.98-7.725,8.688-14.429C100.978,210.752,97.323,207.031,91.833,204.9Z"/><path class="logoclass" d="M208.138,206.464a5.874,5.874,0,0,1-.722-.308c4.706-2.609,6.5-4.96,7.181-9.342a11.7,11.7,0,0,0-9.271-13.553,25.582,25.582,0,0,0-4.748-.51c-7.472-.066-14.944-.052-22.417-.063a5.019,5.019,0,0,0-.613.08v49.868h1.19q11.735,0,23.469,0c7.564-.012,13.408-4.923,14.451-12.4C217.555,213.81,214.646,208.223,208.138,206.464Zm-23.963-18.335c5.819.13,11.582.056,17.312.452,4.537.314,6.784,3.322,6.542,7.88-.24,4.525-2.528,7-7.214,7.437-2.9.27-5.825.223-8.74.267-2.6.04-5.208.008-7.9.008ZM209.448,221.9a7.867,7.867,0,0,1-7.483,5.057c-5.9.188-11.81.052-17.8.052V209.974c6.1,0,12.12-.087,18.135.063a9.9,9.9,0,0,1,4.275,1.367C209.959,213.258,211.138,217.8,209.448,221.9Z"/><path class="logoclass" d="M157.906,195.6a18.272,18.272,0,0,0-18.1,8.855,20.807,20.807,0,0,0-2.383,12.862c.734,6.535,3.708,11.663,9.848,14.545a20.883,20.883,0,0,0,11.755,1.507,15.2,15.2,0,0,0,9.708-4.812,18.242,18.242,0,0,0,3.934-7.132c-2.482,0-4.815.036-7.146-.017-.994-.022-1.71.067-2.219,1.144a5.149,5.149,0,0,1-1.855,1.882,9.94,9.94,0,0,1-10.107.657c-2.69-1.232-4.537-5.169-3.957-8.085h25.9a7.907,7.907,0,0,0,.077-.929c-.077-1.629-.04-3.277-.279-4.884C171.907,203.217,166.815,196.65,157.906,195.6Zm-10.582,15.055a7.579,7.579,0,0,1,7.5-7.652c4.9-.215,8.11,2.678,8.431,7.652Z"/><path class="logoclass" d="M334.943,196.882a15.2,15.2,0,0,0-12.671-.08,13.243,13.243,0,0,0-5.589,4.814c-1.69-3.137-2.7-4.232-4.693-5.109a14.251,14.251,0,0,0-14.971,2.787c-.725.726-1.369,1.531-2.25,2.525v-5.273h-5.46v36.042h5.833V231.1c0-6.735-.015-13.47,0-20.2a9.786,9.786,0,0,1,9.474-10.118c3.683-.173,6.076,1.6,6.753,5.044a12.323,12.323,0,0,1,.25,2.316q.042,11.5.04,23.007c0,.457,0,.913,0,1.423h5.9c0-.519,0-.976,0-1.432,0-6.813-.021-13.626.006-20.438.025-6.225,3.131-9.555,9.171-9.91,3.829-.225,6.308,1.466,7.031,4.845a11.935,11.935,0,0,1,.271,2.43q.045,11.562.043,23.124c0,.453,0,.906,0,1.368h5.8a2.332,2.332,0,0,0,.088-.411c0-9.071.072-18.142-.026-27.211C339.908,201.349,338.38,198.4,334.943,196.882Z"/><path class="logoclass" d="M285.974,228.233c-1.95.281-2.571-.229-2.651-2.192-.044-1.087-.088-2.176-.09-3.264-.009-5.876.009-11.752-.009-17.628-.013-4.538-2.186-7.581-6.571-8.741a31.436,31.436,0,0,0-6.674-.868,18.661,18.661,0,0,0-9.715,1.982c-3.684,1.956-6.26,6.488-5.689,10.074h5.74c.8-4.387,2.5-6.115,6.518-6.67a15.514,15.514,0,0,1,2.326-.152c1.986.028,3.981.081,5.753,1.161,2.1,1.28,2.634,3.283,2.394,5.547-.211,2-1.766,2.689-3.426,3.2a11.8,11.8,0,0,1-1.25.285c-3.853.729-7.767,1.23-11.548,2.232-5.868,1.556-8.256,4.98-8.029,11.035a8.671,8.671,0,0,0,5.435,8.155,17.365,17.365,0,0,0,18.231-3.34c.254-.252.531-.481.9-.813.07.569.1.951.165,1.329a4.2,4.2,0,0,0,2.81,3.692,8.166,8.166,0,0,0,5.7-.324c.27-.11.618-.451.629-.7.061-1.375.029-2.754.029-4.181C286.506,228.134,286.242,228.195,285.974,228.233Zm-8.745-7.512c-.531,3.869-3.189,5.972-6.749,7.04a13.243,13.243,0,0,1-6.787.266c-2.583-.581-4.069-2.108-4.346-4.388a5.345,5.345,0,0,1,3.068-5.87,28.977,28.977,0,0,1,6.027-1.63c2.96-.527,6.022-.547,8.839-2.043A49.862,49.862,0,0,1,277.23,220.721Z"/><path class="logoclass" d="M225.764,198.914a18.08,18.08,0,0,0-6.676,12.772,23.2,23.2,0,0,0,3.325,15.2c5.45,8.566,19.4,8.38,25.035,2.758a15.214,15.214,0,0,0,4.271-8.362h-5.847c-.907,3.813-3.2,6.271-7.084,6.817a16.686,16.686,0,0,1-5.542-.172,10.4,10.4,0,0,1-7.886-11.63h26.926a25.777,25.777,0,0,0-1.451-10.006C246.246,193.221,232.326,193.59,225.764,198.914Zm-.4,12.1c-.506-5.125,4.222-9.951,9.946-10.228A10.356,10.356,0,0,1,245.9,211.012Z"/><path class="logoclass" d="M133.416,225.208c-1.889-.083-2.885-.807-2.916-2.655-.107-6.446-.042-12.894-.042-19.5h7.1v-6.626H130.3V185.545h-9.8v10.948h-6v6.574c1.6,0,3.112.058,4.617-.02,1.038-.054,1.4.228,1.39,1.34-.057,5.641-.032,11.283-.023,16.925,0,1.633-.053,3.276.1,4.9a6.5,6.5,0,0,0,4.653,5.965,14.216,14.216,0,0,0,3.861.8c2.811.119,5.631.037,8.533.037V225.22C136.13,225.22,134.771,225.268,133.416,225.208Z"/><path class="logoclass" d="M103.775,232.545h9.7V196.514h-9.7Z"/><path class="logoclass" d="M113.473,182.754h-9.741v8h9.741Z"/></svg>