<svg id="b053b91c-ec32-42a8-9c18-40545bfdcad3" data-name="Layer 1" xmlns="http://www.w3.org/2000/svg" preserveAspectRatio="xMaxYMax meet" viewBox="0 0 400 400"><style type="text/css">.logoclass{fill:#dde8e7}</style><path class="logoclass" d="M115.72,175.711q1.391,15.412,2.794,30.822c.911,10.193,1.787,20.388,2.695,30.581q1.384,15.536,2.8,31.07,1.363,15.289,2.7,30.581c.544,6.216,1.113,12.431,1.587,18.652.135,1.776,1.143,2.271,2.662,2.691q34,9.382,67.96,18.877a24.021,24.021,0,0,1,2.686,1.1h1.5c5.716-1.688,11.412-3.446,17.151-5.05q27.005-7.548,54.052-14.947a3.126,3.126,0,0,0,2.647-3.264q2.527-29.467,5.124-58.929c1.746-19.555,3.6-39.1,5.349-58.655,1.423-15.91,2.754-31.828,4.145-47.74.478-5.463,1.016-10.92,1.551-16.642H112.18c.226,3,.421,6.02.687,9.034Q114.273,159.8,115.72,175.711Zm143.985-3.624c-.153,1.654-.294,3.172-.432,4.691-.5,5.463-1.07,10.922-1.446,16.394-.114,1.657-.708,2.1-2.266,2.092q-26.5-.075-53-.06-15-.012-30-.024a16.389,16.389,0,0,0-1.8.2l2.028,22.552h82.817c-.378,4.568-.7,8.772-1.079,12.971q-1.122,12.541-2.287,25.078-1.192,13.037-2.384,26.074a1,1,0,0,0-.035.246c.964,5.283-2.255,6.532-6.576,7.644-12.866,3.311-25.616,7.069-38.436,10.561a8.172,8.172,0,0,1-4.1.047c-14.278-3.889-28.522-7.9-42.793-11.821a2.768,2.768,0,0,1-2.448-2.837c-.852-10.534-1.84-21.056-2.77-31.584-.057-.64-.007-1.289-.007-2.311h7.048c4.583,0,9.169.091,13.748-.043,1.865-.054,2.492.659,2.614,2.383.312,4.4.806,8.788,1.048,13.19.1,1.838.628,2.81,2.553,3.3,6.932,1.751,13.805,3.731,20.728,5.52a7.524,7.524,0,0,0,3.611.028c7.075-1.826,14.106-3.824,21.181-5.654a2.782,2.782,0,0,0,2.488-2.821c.512-6.461,1.146-12.913,1.723-19.37.205-2.3.375-4.6.593-7.293H226.84c-24.081-.024-48.162-.083-72.243-.016-2.327.007-3.142-.588-3.329-2.949-.812-10.287-1.821-20.558-2.746-30.835q-1.421-15.789-2.814-31.581c-.1-1.145-.126-2.3-.2-3.773Z"/><path class="logoclass" d="M204.343,115.5v3.008h11.441V101.94l7.915,12.084,7.48-11.489.523.142v15.787H243.1V84.087h-12L223.755,96.05,216.6,84.087H204.1c.082.986.234,1.971.236,2.957Q204.359,101.271,204.343,115.5Z"/><path class="logoclass" d="M140.442,107.242h10.494v11.231H162.6V84.087h-12V95.355h-10V84.087h-12v34.408h11.845Z"/><path class="logoclass" d="M177.6,118.5h11.664v-23H199.6V84.087H167.1v11.6h10.5Z"/><path class="logoclass" d="M248.843,115.518v3.044H276.7V107.05H260.6V84.087h-12c.082.986.234,1.972.236,2.959Q248.859,101.282,248.843,115.518Z"/></svg>