<svg id="e65d844e-13d3-43fe-ba19-ec72cec9fde2" data-name="Layer 1" xmlns="http://www.w3.org/2000/svg" preserveAspectRatio="xMaxYMax meet" viewBox="0 0 400 400"><style type="text/css">.logoclass{fill:#dde8e7}</style><path class="logoclass" d="M252.244,172.677q-26.294-26.331-52.708-52.542c-5.354-5.313-9.687-5.269-15.052.082q-26.171,26.1-52.254,52.3c-5.392,5.414-5.6,10.19-.263,15.6q26.3,26.673,52.9,53.054c1.892,1.877,4.654,2.877,7.405,4.519,2.858-1.908,5.624-3.186,7.658-5.2q26.259-26.015,52.281-52.269C257.628,182.776,257.649,178.09,252.244,172.677Zm-47.679,9.214c-3.928,4.446-8.191,8.6-13.255,13.78-4.491-4.862-8.507-9.029-12.245-13.432-.626-.738-.24-2.545.051-3.77.164-.693,1.086-1.207,1.668-1.8,12.217-12.467,12.253-12.5,23.3,1.115C204.846,178.727,205.2,181.178,204.565,181.891Z"/><path class="logoclass" d="M70.914,289.35c7.475,4.9,17.064.427,17.622-8.193.123-1.9-.353-3.029-2.55-2.916-2.118.108-4.246.026-6.37.026-1.286,0-2.373.182-2.327,1.89.042,1.575,1.074,1.72,2.253,1.725,1.623.007,3.245,0,5.073,0-.5,3.239-2.021,4.9-4.665,5.626a8.315,8.315,0,0,1-9.454-3.546,8.454,8.454,0,0,1,.947-10.083,8.041,8.041,0,0,1,10.115-1.493c1.513.877,2.642.758,3.2-.692.2-.519-.749-1.857-1.486-2.3a11.838,11.838,0,0,0-16.052,4.2A11.542,11.542,0,0,0,70.914,289.35Z"/><path class="logoclass" d="M230.85,290.791c1.875-.055,1.365-1.622,1.375-2.685.048-5.031.08-10.065-.032-15.094-.02-.912-.738-1.809-1.134-2.712-.9.591-2.106.983-2.631,1.81-2.054,3.239-3.892,6.615-6.021,10.306-.538-.77-.829-1.128-1.058-1.523-1.812-3.13-3.545-6.308-5.469-9.367a3.02,3.02,0,0,0-2.26-1.118c-.4,0-1.142,1.2-1.153,1.87q-.141,8.371.006,16.745c.011.607.847,1.2,1.3,1.8a8.58,8.58,0,0,0,1.462-1.9,5.962,5.962,0,0,0,.059-2.1q0-5.091,0-10.182a69.022,69.022,0,0,1,5.03,7.886c1.583,2.74,2.414,2.749,3.983.037,1.546-2.674,3.068-5.361,4.6-8.042a113.846,113.846,0,0,1,.47,11.69C229.39,289.292,228.953,290.847,230.85,290.791Z"/><path class="logoclass" d="M131.363,294.24a5.211,5.211,0,0,1-4.269-.7c-1.537-1.243-2.538-1.159-4.045.145a12.992,12.992,0,0,0,1.382,2.1,7.127,7.127,0,0,0,7.825,1.788,6.353,6.353,0,0,0,4.521-6.28c.158-4.01.085-8.031.068-12.047-.011-2.567-.315-2.771-2.963-2.467a4.772,4.772,0,0,1-1.809-.119c-3.557-1.015-6.416-.146-8.349,2.6a7.583,7.583,0,0,0,.093,9.037c1.994,2.684,4.917,3.5,8.39,2.362a6.058,6.058,0,0,1,1.048-.154l.564.572C133.019,292.183,132.416,293.891,131.363,294.24Zm-1.394-6.21a4.049,4.049,0,0,1-4.056-4.239,4.178,4.178,0,0,1,3.869-4.478c2.124-.051,3.979,2.01,3.964,4.4A4.115,4.115,0,0,1,129.969,288.03Z"/><path class="logoclass" d="M200.471,294.249a4.1,4.1,0,0,1-5.168-.947c-1.187-1.337-2.078-.891-3.02.166a6.515,6.515,0,0,0,6.935,3.924c3.241-.4,5.81-2.259,6.1-5.323.429-4.6.332-9.258.322-13.891,0-.471-1.323-1.39-1.377-1.344-1.828,1.582-3.289-.22-4.891-.466a6.377,6.377,0,0,0-6.546,2.836,8.269,8.269,0,0,0,.569,9.881c2.363,2.642,5.325,2.85,9.409.47C203.006,291.817,202.3,293.394,200.471,294.249Zm-1.978-5.69c-2.448-.035-4.1-1.961-4.1-4.78,0-2.9,1.778-4.912,4.306-4.865,2.286.042,4.2,2.253,4.184,4.836C202.866,286.6,201.045,288.595,198.492,288.559Z"/><path class="logoclass" d="M287.745,294.165a4.1,4.1,0,0,1-5.213-.686c-1.112-1.18-2-1.339-3.2-.036a6.629,6.629,0,0,0,7.22,3.891c3.593-.584,5.818-2.611,6.047-6.219.269-4.234.159-8.5.056-12.745-.013-.544-1.342-1.585-1.43-1.521-1.738,1.257-3.143-.055-4.694-.418a5.97,5.97,0,0,0-6.145,2.118,8.1,8.1,0,0,0-.3,10.062c2.045,2.774,4.974,3.275,8.817,1.522a3.866,3.866,0,0,1,.856-.132A3.794,3.794,0,0,1,287.745,294.165Zm-2.1-5.61c-2.537-.041-4.3-2.1-4.236-4.933.066-2.732,1.867-4.721,4.263-4.71,2.485.012,4.245,2.1,4.209,4.984C289.844,286.66,288.084,288.595,285.643,288.555Z"/><path class="logoclass" d="M97.12,291.336a7.624,7.624,0,0,0,7.551-7.737,7.338,7.338,0,0,0-7.729-7.433,7.224,7.224,0,0,0-7.5,7.6A7.586,7.586,0,0,0,97.12,291.336Zm-.1-12.049a4.343,4.343,0,0,1,4.126,4.306,4.287,4.287,0,0,1-3.97,4.441,4.234,4.234,0,0,1-4.24-4.391A4.379,4.379,0,0,1,97.018,279.287Z"/><path class="logoclass" d="M105.932,283.438a7.558,7.558,0,0,0,7.6,7.9,7.74,7.74,0,0,0,7.625-7.5,7.549,7.549,0,0,0-7.6-7.67A7.2,7.2,0,0,0,105.932,283.438Zm11.52.249c-.008,2.562-1.608,4.338-3.914,4.346a4.228,4.228,0,0,1-4.126-4.473,4.03,4.03,0,1,1,8.04.128Z"/><path class="logoclass" d="M148.866,285.721c2.311-.989,4.6-2.043,6.953-2.92,1.816-.676,2.025-1.638,1.093-3.222a6.848,6.848,0,0,0-7.689-3.239,7.238,7.238,0,0,0-5.379,7.174,7.372,7.372,0,0,0,5.613,7.507,6.907,6.907,0,0,0,7.969-3.124c-1.183-1.6-2.226-1.75-3.809-.571a3.123,3.123,0,0,1-5.079-1.267C148.65,285.94,148.735,285.777,148.866,285.721Zm-1.447-2.524c.985-3.876,3.384-4.873,6.243-2.6Z"/><path class="logoclass" d="M239.782,281.637c-2.3.225-4.322,1.134-5.033,3.606a4.278,4.278,0,0,0,1.567,4.853,5.744,5.744,0,0,0,6.436.474,3.489,3.489,0,0,1,2.12.083c1.139.29,2.265.327,2.275-1.1a60.713,60.713,0,0,0-.414-9.381c-.358-2.387-2.819-3.81-5.55-3.9-2.908-.1-4.8,1.022-5.732,3.405,1.543.982,1.543.982,3.207-.036,2.507-1.535,4.882-.615,5.523,2.183A30.292,30.292,0,0,0,239.782,281.637Zm2.533,2.348c.287.232,1.558.752,1.8,1.572.375,1.292-2.112,3.242-3.844,2.9a3.842,3.842,0,0,1-2.564-2.013C237.263,285.14,239.389,283.86,242.315,283.985Z"/><path class="logoclass" d="M180.613,290.943c1.45.237,3.015-.256,4.531-.387a5.024,5.024,0,0,1,2,0c1.5.532,2.512.424,2.535-1.441.029-2.354.137-4.721-.053-7.06a6.292,6.292,0,0,0-9.946-4.724c-.733.5-1.633,2.007-1.386,2.448.664,1.183,1.717.635,2.76-.067,2.435-1.638,4.832-.708,5.5,1.812a39.478,39.478,0,0,0-6.335.659,4.248,4.248,0,0,0-3.205,4.663A4.133,4.133,0,0,0,180.613,290.943Zm3.132-6.915c1.024.13,2.492.847,2.79,1.655.43,1.169-2,2.866-4.569,2.876-.368-.391-1.508-1.088-1.806-2.047C179.762,285.236,181.762,283.776,183.745,284.028Z"/><path class="logoclass" d="M264.113,286.818a4.24,4.24,0,0,0,3.774,4.2c1.39.2,2.872-.3,4.317-.446a4.871,4.871,0,0,1,2.025-.02c1.581.574,2.448.276,2.451-1.535q.006-3.3,0-6.592a5.576,5.576,0,0,0-3.3-5.52,6.473,6.473,0,0,0-6.913.589c-.658.5-1.43,1.932-1.181,2.328.646,1.027,1.644.894,2.76.03,2.361-1.83,4.749-1.007,5.585,1.652a37.841,37.841,0,0,0-6.285.679A4.226,4.226,0,0,0,264.113,286.818ZM270.9,284c1.141.027,2.741-.1,2.738,1.757,0,1.412-2.064,2.826-4.7,2.78-.337-.417-1.587-1.258-1.592-2.105C267.336,284.28,269.222,283.964,270.9,284Z"/><path class="logoclass" d="M305.766,284.362c2.565-.023,3.052-.694,2.354-3.146a6.606,6.606,0,0,0-6.645-4.951,6.9,6.9,0,0,0-6.681,5.6,7.718,7.718,0,0,0,3.488,8.539c2.761,1.506,6.579,1.053,8.463-1.159.427-.5.35-1.431.5-2.164-.81.083-1.843-.124-2.392.3-2.976,2.291-6.278,1.221-7.257-3.016C300.487,284.367,303.127,284.385,305.766,284.362Zm-4.009-5.321c1.255.24,2.377,1.172,3.558,1.8l-.341.856H297.95C298.719,279.47,300.131,278.731,301.757,279.041Z"/><path class="logoclass" d="M249.693,288.818c.081.7.865,1.328,1.328,1.988.5-.643,1.372-1.251,1.438-1.936.208-2.181.008-4.4.173-6.586a3.419,3.419,0,0,1,3.6-3.312c2.163.128,2.969,1.477,2.985,3.48.018,2.277-.045,4.56.128,6.826.041.539.88,1.018,1.352,1.524.469-.493,1.322-.971,1.342-1.482a65.544,65.544,0,0,0-.049-8.471,5.1,5.1,0,0,0-7.147-4.222c-1.08.418-2.062,1.6-3.35.274-.076-.078-1.678.8-1.748,1.334a41.894,41.894,0,0,0-.088,5.407h-.021A45.644,45.644,0,0,0,249.693,288.818Z"/><path class="logoclass" d="M175.86,272.954c.681.009,1.373-.82,2.06-1.262-.717-.5-1.414-1.383-2.155-1.423-3.06-.164-6.134-.111-9.2-.053-1.083.021-2.665-.41-2.7,1.405-.034,1.908,1.6,1.234,2.648,1.4a2.887,2.887,0,0,0,.707.006c1.644-.156,2.252.622,2.2,2.222-.072,2.2-.018,4.405-.018,6.608h.014c0,2.282-.127,4.574.072,6.839.065.743.978,1.411,1.5,2.114.433-.695,1.219-1.379,1.24-2.087.123-4.009.049-8.023.068-12.036C172.316,273.357,171.853,272.9,175.86,272.954Z"/><path class="logoclass" d="M140.831,290.871c1.426-.026,1.642-.9,1.64-2.043q-.015-8.968,0-17.935c0-1.169-.06-2.23-1.682-2.241-1.564-.01-1.777.936-1.771,2.165.015,2.989.005,5.978,0,8.968s.019,5.979-.01,8.968C139,290.032,139.311,290.9,140.831,290.871Z"/><path class="logoclass" d="M311.894,290.717c.271.07,1.084-.813,1.155-1.331a30.2,30.2,0,0,0,.084-3.993c.009-4.693.049-4.687,4.413-6.338.565-.214.863-1.136,1.284-1.73-.611-.327-1.279-1-1.82-.909a19.48,19.48,0,0,0-3.431,1.194,7.59,7.59,0,0,0-2.259-.735c-.344,0-.982.826-.991,1.288-.076,3.763-.09,7.531.04,11.292C310.383,289.923,311.293,290.561,311.894,290.717Z"/></svg>